<svg width="200" height="200" viewBox="0 0 200 200" fill="none" xmlns="http://www.w3.org/2000/svg">
<path d="M100 0C72.8625 0 69.45 0.125 58.7875 0.6C48.125 1.1 40.8625 2.775 34.5 5.25C27.8231 7.75407 21.7768 11.6925 16.7875 16.7875C11.6925 21.7768 7.75407 27.8231 5.25 34.5C2.775 40.85 1.0875 48.125 0.6 58.75C0.125 69.4375 0 72.8375 0 100.013C0 127.163 0.125 130.563 0.6 141.225C1.1 151.875 2.775 159.137 5.25 165.5C7.8125 172.075 11.225 177.65 16.7875 183.212C22.3375 188.775 27.9125 192.2 34.4875 194.75C40.8625 197.225 48.1125 198.912 58.7625 199.4C69.4375 199.875 72.8375 200 100 200C127.163 200 130.55 199.875 141.225 199.4C151.863 198.9 159.15 197.225 165.513 194.75C172.185 192.244 178.227 188.306 183.212 183.212C188.775 177.65 192.187 172.075 194.75 165.5C197.212 159.137 198.9 151.875 199.4 141.225C199.875 130.563 200 127.163 200 100C200 72.8375 199.875 69.4375 199.4 58.7625C198.9 48.125 197.212 40.85 194.75 34.5C192.246 27.8231 188.308 21.7768 183.212 16.7875C178.223 11.6925 172.177 7.75407 165.5 5.25C159.125 2.775 151.85 1.0875 141.212 0.6C130.537 0.125 127.15 0 99.975 0H100ZM91.0375 18.025H100.013C126.713 18.025 129.875 18.1125 140.412 18.6C150.162 19.0375 155.462 20.675 158.987 22.0375C163.65 23.85 166.987 26.025 170.487 29.525C173.987 33.025 176.15 36.35 177.963 41.025C179.338 44.5375 180.963 49.8375 181.4 59.5875C181.888 70.125 181.988 73.2875 181.988 99.975C181.988 126.663 181.888 129.837 181.4 140.375C180.963 150.125 179.325 155.413 177.963 158.938C176.348 163.274 173.791 167.197 170.475 170.425C166.975 173.925 163.65 176.088 158.975 177.9C155.475 179.275 150.175 180.9 140.412 181.35C129.875 181.825 126.713 181.938 100.013 181.938C73.3125 181.938 70.1375 181.825 59.6 181.35C49.85 180.9 44.5625 179.275 41.0375 177.9C36.6979 176.291 32.77 173.738 29.5375 170.425C26.2159 167.195 23.6541 163.267 22.0375 158.925C20.675 155.412 19.0375 150.113 18.6 140.363C18.125 129.825 18.025 126.662 18.025 99.95C18.025 73.2375 18.125 70.1 18.6 59.5625C19.05 49.8125 20.675 44.5125 22.05 40.9875C23.8625 36.325 26.0375 32.9875 29.5375 29.4875C33.0375 25.9875 36.3625 23.825 41.0375 22.0125C44.5625 20.6375 49.85 19.0125 59.6 18.5625C68.825 18.1375 72.4 18.0125 91.0375 18V18.025ZM153.387 34.625C151.812 34.625 150.251 34.9354 148.795 35.5384C147.339 36.1415 146.017 37.0254 144.902 38.1397C143.788 39.254 142.904 40.5769 142.301 42.0328C141.698 43.4887 141.387 45.0491 141.387 46.625C141.387 48.2009 141.698 49.7613 142.301 51.2172C142.904 52.6731 143.788 53.996 144.902 55.1103C146.017 56.2246 147.339 57.1085 148.795 57.7116C150.251 58.3146 151.812 58.625 153.387 58.625C156.57 58.625 159.622 57.3607 161.873 55.1103C164.123 52.8598 165.387 49.8076 165.387 46.625C165.387 43.4424 164.123 40.3902 161.873 38.1397C159.622 35.8893 156.57 34.625 153.387 34.625ZM100.013 48.65C93.2009 48.5437 86.4362 49.7936 80.1122 52.3268C73.7883 54.86 68.0314 58.6259 63.1769 63.4053C58.3223 68.1847 54.4671 73.8821 51.8355 80.1657C49.204 86.4494 47.8488 93.1938 47.8488 100.006C47.8488 106.819 49.204 113.563 51.8355 119.847C54.4671 126.13 58.3223 131.828 63.1769 136.607C68.0314 141.387 73.7883 145.153 80.1122 147.686C86.4362 150.219 93.2009 151.469 100.013 151.363C113.494 151.152 126.353 145.649 135.812 136.041C145.272 126.432 150.574 113.49 150.574 100.006C150.574 86.5228 145.272 73.5802 135.812 63.9719C126.353 54.3636 113.494 48.8603 100.013 48.65ZM100.013 66.6625C104.39 66.6625 108.726 67.5248 112.77 69.2002C116.815 70.8755 120.49 73.3312 123.586 76.4268C126.681 79.5225 129.137 83.1976 130.812 87.2423C132.488 91.287 133.35 95.6221 133.35 100C133.35 104.378 132.488 108.713 130.812 112.758C129.137 116.802 126.681 120.477 123.586 123.573C120.49 126.669 116.815 129.124 112.77 130.8C108.726 132.475 104.39 133.337 100.013 133.337C91.1709 133.337 82.6913 129.825 76.4393 123.573C70.1873 117.321 66.675 108.842 66.675 100C66.675 91.1583 70.1873 82.6788 76.4393 76.4268C82.6913 70.1748 91.1709 66.6625 100.013 66.6625Z" fill="#333333"/>
</svg>
