<svg width="158" height="181" viewBox="0 0 158 181" fill="none" xmlns="http://www.w3.org/2000/svg">
<path d="M125.091 28.3567C118.217 20.5095 114.429 10.432 114.432 0H83.3606V124.689C83.1209 131.436 80.2722 137.828 75.4143 142.517C70.5564 147.206 64.0684 149.827 57.3167 149.828C43.0378 149.828 31.1722 138.163 31.1722 123.683C31.1722 106.388 47.8644 93.4161 65.0594 98.7456V66.97C30.3678 62.3444 0 89.2933 0 123.683C0 157.168 27.7533 181 57.2161 181C88.7906 181 114.432 155.358 114.432 123.683V60.4339C127.032 69.4824 142.159 74.3372 157.671 74.3106V43.2389C157.671 43.2389 138.767 44.1439 125.091 28.3567Z" fill="#333333"/>
</svg>
