<svg width="200" height="140" viewBox="0 0 200 140" fill="none" xmlns="http://www.w3.org/2000/svg">
<path d="M80 100L131.9 70L80 40V100ZM195.6 21.7C196.9 26.4 197.8 32.7 198.4 40.7C199.1 48.7 199.4 55.6 199.4 61.6L200 70C200 91.9 198.4 108 195.6 118.3C193.1 127.3 187.3 133.1 178.3 135.6C173.6 136.9 165 137.8 151.8 138.4C138.8 139.1 126.9 139.4 115.9 139.4L100 140C58.1 140 32 138.4 21.7 135.6C12.7 133.1 6.9 127.3 4.4 118.3C3.1 113.6 2.2 107.3 1.6 99.3C0.900001 91.3 0.599999 84.4 0.599999 78.4L0 70C0 48.1 1.6 32 4.4 21.7C6.9 12.7 12.7 6.9 21.7 4.4C26.4 3.1 35 2.2 48.2 1.6C61.2 0.899998 73.1 0.599999 84.1 0.599999L100 0C141.9 0 168 1.6 178.3 4.4C187.3 6.9 193.1 12.7 195.6 21.7Z" fill="#333333"/>
</svg>
