<svg width="587" height="220" viewBox="0 0 587 220" fill="none" xmlns="http://www.w3.org/2000/svg">
<rect width="587" height="220" rx="8" fill="#ECF5FF"/>
<path d="M96.1289 100.688H72.9844V133.324C72.9844 136.332 72.1836 138.52 70.582 139.887C69.0195 141.254 66.6172 141.938 63.375 141.938C60.0938 141.938 57.6719 141.254 56.1094 139.887C54.5469 138.52 53.7656 136.332 53.7656 133.324V100.688H44.625V95.5312H53.7656V58.6758C52.5156 58.793 51.0703 59.0273 49.4297 59.3789C47.8281 59.6914 46.168 60.1602 44.4492 60.7852C42.7695 61.3711 41.1094 62.0742 39.4688 62.8945C37.8281 63.7148 36.3633 64.6719 35.0742 65.7656C33.7852 66.8594 32.7305 68.0898 31.9102 69.457C31.1289 70.7852 30.7383 72.2305 30.7383 73.793C30.7383 75.043 30.8945 76.0391 31.207 76.7812C31.5586 77.5234 31.9492 78.0898 32.3789 78.4805C32.8086 78.832 33.2383 79.0664 33.668 79.1836C34.1367 79.2617 34.4688 79.3008 34.6641 79.3008C35.6406 79.3008 36.4414 79.1445 37.0664 78.832C37.6914 78.4805 38.2578 78.1289 38.7656 77.7773C39.2734 77.3867 39.7422 77.0352 40.1719 76.7227C40.6406 76.3711 41.168 76.1953 41.7539 76.1953C42.2227 76.1953 42.7109 76.3125 43.2188 76.5469C43.7656 76.7422 44.2539 77.0742 44.6836 77.543C45.1523 78.0117 45.543 78.6367 45.8555 79.418C46.168 80.1602 46.3242 81.0781 46.3242 82.1719C46.3242 83.7344 46.0117 85.1016 45.3867 86.2734C44.8008 87.4062 44.0195 88.3438 43.043 89.0859C42.1055 89.8281 41.0117 90.3945 39.7617 90.7852C38.5508 91.1367 37.3398 91.3125 36.1289 91.3125C34.2539 91.3125 32.5547 91 31.0312 90.375C29.5469 89.7109 28.2773 88.8125 27.2227 87.6797C26.168 86.5469 25.3672 85.2383 24.8203 83.7539C24.2734 82.2305 24 80.5898 24 78.832C24 74.2617 25.25 70.375 27.75 67.1719C30.2891 63.9687 33.7461 61.3516 38.1211 59.3203C42.4961 57.25 47.5938 55.7461 53.4141 54.8086C59.2344 53.8711 65.4648 53.4023 72.1055 53.4023C74.8008 53.4023 77.6133 53.4414 80.543 53.5195C83.4727 53.5586 86.2266 53.6367 88.8047 53.7539C91.4219 53.8711 93.7266 54.0078 95.7188 54.1641C97.7109 54.3203 99.1172 54.4961 99.9375 54.6914C100.719 54.8867 101.344 55.1016 101.812 55.3359C102.281 55.5703 102.633 55.8438 102.867 56.1562C103.102 56.4687 103.258 56.8398 103.336 57.2695C103.414 57.6602 103.453 58.1289 103.453 58.6758C103.453 59.1445 103.395 59.6719 103.277 60.2578C103.16 60.8047 102.984 61.332 102.75 61.8398C102.516 62.3086 102.223 62.7188 101.871 63.0703C101.52 63.4219 101.09 63.5977 100.582 63.5977C100.27 63.5977 99.918 63.4609 99.5273 63.1875C99.1758 62.9141 98.6484 62.5625 97.9453 62.1328C97.2812 61.7031 96.3633 61.2539 95.1914 60.7852C94.0586 60.3164 92.5156 59.8672 90.5625 59.4375C88.6484 59.0078 86.2461 58.6563 83.3555 58.3828C80.5039 58.1094 77.0469 57.9727 72.9844 57.9727V95.5312H96.1289V100.688ZM154.078 116.273H131.988C130.348 121.43 128.57 125.902 126.656 129.691C124.781 133.48 122.691 136.625 120.387 139.125C118.082 141.625 115.543 143.48 112.77 144.691C110.035 145.902 106.969 146.508 103.57 146.508C101.695 146.508 99.8984 146.332 98.1797 145.98C96.4219 145.668 94.8789 145.219 93.5508 144.633C92.2227 144.047 91.168 143.344 90.3867 142.523C89.5664 141.742 89.1562 140.883 89.1562 139.945C89.1562 139.242 89.2734 138.539 89.5078 137.836C89.7031 137.094 89.9961 136.43 90.3867 135.844C90.7773 135.219 91.2656 134.73 91.8516 134.379C92.3984 133.988 93.0234 133.793 93.7266 133.793C94.3516 133.793 94.8984 134.223 95.3672 135.082C95.8359 135.941 96.4414 136.898 97.1836 137.953C97.8867 138.969 98.8047 139.906 99.9375 140.766C101.07 141.625 102.633 142.055 104.625 142.055C106.656 142.055 108.59 141.566 110.426 140.59C112.262 139.613 114.02 138.09 115.699 136.02C117.418 133.91 119.059 131.234 120.621 127.992C122.184 124.75 123.707 120.844 125.191 116.273H111.363V111.117H126.715C128.004 106.742 129.254 102.328 130.465 97.875C131.715 93.4219 132.887 89.1445 133.98 85.043C135.074 80.9414 136.051 77.1133 136.91 73.5586C137.77 69.9648 138.492 66.8398 139.078 64.1836C138.297 61.9961 137.223 60.5313 135.855 59.7891C134.527 59.0469 132.73 58.6758 130.465 58.6758C128.355 58.6758 126.168 59.0078 123.902 59.6719C121.676 60.2969 119.645 61.2148 117.809 62.4258C115.973 63.5977 114.449 65.0625 113.238 66.8203C112.066 68.5391 111.48 70.4727 111.48 72.6211C111.48 73.8711 111.637 74.8672 111.949 75.6094C112.301 76.3516 112.691 76.918 113.121 77.3086C113.59 77.6602 114.039 77.8945 114.469 78.0117C114.898 78.0898 115.23 78.1289 115.465 78.1289C116.402 78.1289 117.184 77.9727 117.809 77.6602C118.473 77.3086 119.039 76.957 119.508 76.6055C120.016 76.2148 120.504 75.8633 120.973 75.5508C121.441 75.1992 121.969 75.0234 122.555 75.0234C122.984 75.0234 123.453 75.1406 123.961 75.375C124.508 75.5703 124.996 75.9023 125.426 76.3711C125.895 76.8398 126.285 77.4648 126.598 78.2461C126.91 78.9883 127.066 79.9062 127.066 81C127.066 82.5625 126.754 83.9102 126.129 85.043C125.543 86.1758 124.762 87.1328 123.785 87.9141C122.848 88.6562 121.754 89.2227 120.504 89.6133C119.293 89.9648 118.082 90.1406 116.871 90.1406C114.996 90.1406 113.297 89.8086 111.773 89.1445C110.289 88.4414 109.02 87.5039 107.965 86.332C106.91 85.1602 106.109 83.793 105.562 82.2305C105.016 80.668 104.742 79.0273 104.742 77.3086C104.742 74.7305 105.172 72.3672 106.031 70.2188C106.891 68.0312 108.082 66.0586 109.605 64.3008C111.129 62.5039 112.926 60.9414 114.996 59.6133C117.066 58.2461 119.293 57.1133 121.676 56.2148C124.098 55.2773 126.617 54.5742 129.234 54.1055C131.852 53.6367 134.488 53.4023 137.145 53.4023C140.895 53.4023 144.059 53.7148 146.637 54.3398C149.254 54.9258 151.441 55.8242 153.199 57.0352C154.957 58.207 156.363 59.7109 157.418 61.5469C158.512 63.3438 159.41 65.4336 160.113 67.8164L172.711 111.117H185.426V116.273H174.117L178.688 131.625C178.844 132.211 179 132.758 179.156 133.266C179.312 133.773 179.488 134.223 179.684 134.613C179.918 134.965 180.191 135.258 180.504 135.492C180.855 135.727 181.285 135.844 181.793 135.844C182.887 135.844 183.902 135.668 184.84 135.316C185.777 134.926 186.598 134.535 187.301 134.145L188.297 136.312C187.594 136.82 186.695 137.406 185.602 138.07C184.547 138.695 183.316 139.301 181.91 139.887C180.543 140.473 179.02 140.961 177.34 141.352C175.66 141.742 173.863 141.938 171.949 141.938C169.293 141.938 167.145 141.605 165.504 140.941C163.902 140.277 162.633 139.457 161.695 138.48C160.797 137.504 160.133 136.469 159.703 135.375C159.312 134.281 159 133.324 158.766 132.504L154.078 116.273ZM142.711 76.6641C141.109 83.1875 139.547 89.3203 138.023 95.0625C136.539 100.805 135.055 106.156 133.57 111.117H152.672L142.711 76.6641ZM320.133 129.062C320.084 129.159 319.791 129.574 319.254 130.307C318.717 131.039 317.936 131.942 316.91 133.017C315.934 134.042 314.688 135.165 313.175 136.386C311.71 137.558 309.952 138.656 307.901 139.682C305.899 140.658 303.629 141.488 301.09 142.172C298.551 142.855 295.743 143.197 292.667 143.197C287.882 143.197 283.39 142.587 279.19 141.366C274.991 140.194 270.938 138.681 267.032 136.825C263.175 134.97 259.366 132.919 255.606 130.673C251.847 128.427 248.014 126.229 244.107 124.081C241.715 128.085 238.956 131.356 235.831 133.896C232.755 136.386 229.532 138.339 226.163 139.755C222.843 141.171 219.522 142.123 216.202 142.611C212.931 143.148 209.903 143.417 207.12 143.417C204.435 143.417 201.7 143.124 198.917 142.538C196.183 142.001 193.692 141.098 191.446 139.828C189.249 138.51 187.442 136.801 186.026 134.701C184.61 132.602 183.902 129.989 183.902 126.864C183.902 123.935 184.586 121.298 185.953 118.954C187.271 116.562 189.103 114.535 191.446 112.875C193.839 111.215 196.646 109.945 199.869 109.066C203.092 108.139 206.559 107.675 210.27 107.675C213.053 107.675 215.812 107.919 218.546 108.407C221.329 108.896 224.039 109.555 226.676 110.385C229.312 111.215 231.876 112.167 234.366 113.241C236.856 114.267 239.2 115.316 241.397 116.391C241.69 115.512 241.935 114.633 242.13 113.754C242.374 112.875 242.569 111.923 242.716 110.897C242.911 109.823 243.033 108.651 243.082 107.382C243.18 106.063 243.229 104.55 243.229 102.841C243.229 101.229 243.18 99.6914 243.082 98.2266C243.033 96.7617 242.96 95.1748 242.862 93.4658C242.813 91.708 242.74 89.7549 242.643 87.6064C242.594 85.4092 242.569 82.7969 242.569 79.7695C242.569 72.7871 243.253 66.4395 244.62 60.7266C245.987 54.9648 248.014 50.0332 250.699 45.9316C253.385 41.8301 256.729 38.6563 260.733 36.4102C264.737 34.1152 269.4 32.9678 274.723 32.9678C277.945 32.9678 280.997 33.4805 283.878 34.5059C286.808 35.5312 289.371 36.9961 291.568 38.9004C293.814 40.8047 295.572 43.0752 296.842 45.7119C298.16 48.3486 298.819 51.2783 298.819 54.501C298.819 56.2588 298.575 58.0898 298.087 59.9941C297.599 61.8984 296.915 63.6562 296.036 65.2676C295.206 66.8301 294.229 68.124 293.106 69.1494C292.032 70.1748 290.885 70.6875 289.664 70.6875C288.98 70.6875 288.37 70.4922 287.833 70.1016C287.296 69.7109 287.027 69.1006 287.027 68.2705C287.027 67.6846 287.149 67.1963 287.394 66.8057C287.687 66.3662 288.028 65.9756 288.419 65.6338C289.835 64.3643 290.982 62.8018 291.861 60.9463C292.789 59.0908 293.253 56.9424 293.253 54.501C293.253 52.0596 292.74 49.8623 291.715 47.9092C290.738 45.9072 289.396 44.2227 287.687 42.8555C286.026 41.4395 284.073 40.3652 281.827 39.6328C279.63 38.8516 277.311 38.4609 274.869 38.4609C270.279 38.4609 266.3 39.4619 262.931 41.4639C259.562 43.4658 256.778 46.2979 254.581 49.96C252.384 53.5732 250.748 57.9678 249.674 63.1436C248.648 68.2705 248.136 73.9834 248.136 80.2822C248.136 83.3096 248.16 85.9707 248.209 88.2656C248.307 90.5605 248.38 92.6602 248.429 94.5645C248.526 96.4688 248.6 98.2754 248.648 99.9844C248.746 101.645 248.795 103.354 248.795 105.111C248.795 106.137 248.746 107.26 248.648 108.48C248.551 109.652 248.404 110.873 248.209 112.143C248.014 113.363 247.745 114.584 247.403 115.805C247.11 116.977 246.769 118.051 246.378 119.027C250.089 120.98 253.751 123.056 257.364 125.253C260.978 127.45 264.64 129.477 268.351 131.332C272.11 133.139 275.968 134.652 279.923 135.873C283.927 137.045 288.15 137.631 292.594 137.631C296.5 137.631 299.869 137.045 302.701 135.873C305.582 134.701 307.95 133.407 309.806 131.991C311.71 130.526 313.126 129.208 314.054 128.036C314.981 126.815 315.445 126.181 315.445 126.132C315.982 125.253 316.764 124.813 317.789 124.813C318.619 124.813 319.278 125.106 319.767 125.692C320.304 126.278 320.572 126.913 320.572 127.597C320.572 128.134 320.426 128.622 320.133 129.062ZM239.273 121.371C237.174 120.346 234.952 119.345 232.608 118.368C230.313 117.343 227.945 116.439 225.504 115.658C223.062 114.877 220.548 114.267 217.96 113.827C215.421 113.339 212.882 113.095 210.343 113.095C207.462 113.095 204.752 113.412 202.213 114.047C199.674 114.633 197.452 115.512 195.548 116.684C193.644 117.855 192.13 119.271 191.007 120.932C189.933 122.592 189.396 124.472 189.396 126.571C189.396 128.524 189.884 130.233 190.86 131.698C191.837 133.114 193.131 134.311 194.742 135.287C196.402 136.215 198.307 136.923 200.455 137.411C202.604 137.851 204.85 138.07 207.193 138.07C210.025 138.07 212.955 137.851 215.982 137.411C219.01 136.923 221.939 136.068 224.771 134.848C227.604 133.578 230.265 131.869 232.755 129.721C235.245 127.523 237.418 124.74 239.273 121.371ZM382.901 120.565C382.706 120.956 382.291 121.786 381.656 123.056C381.07 124.276 380.289 125.692 379.312 127.304C378.385 128.915 377.286 130.6 376.017 132.357C374.747 134.115 373.331 135.727 371.769 137.191C370.206 138.656 368.521 139.877 366.715 140.854C364.908 141.781 363.004 142.245 361.002 142.245C358.17 142.245 355.777 141.342 353.824 139.535C351.92 137.729 350.528 135.458 349.649 132.724C347.989 135.507 346.012 137.729 343.717 139.389C341.422 141 339.127 141.806 336.832 141.806C335.025 141.806 333.39 141.488 331.925 140.854C330.46 140.17 329.215 139.242 328.189 138.07C327.164 136.85 326.358 135.434 325.772 133.822C325.235 132.211 324.967 130.453 324.967 128.549C324.967 124.74 325.602 121.396 326.871 118.515C328.189 115.585 329.85 113.144 331.852 111.19C333.854 109.237 336.051 107.772 338.443 106.796C340.885 105.819 343.229 105.331 345.475 105.331C346.988 105.331 348.38 105.551 349.649 105.99C350.919 106.381 351.993 106.82 352.872 107.309C353.8 107.797 354.508 108.261 354.996 108.7C355.484 109.091 355.753 109.311 355.802 109.359C356.339 109.994 356.607 110.653 356.607 111.337C356.607 112.069 356.339 112.729 355.802 113.314C355.265 113.852 354.63 114.12 353.897 114.12C353.116 114.12 352.457 113.852 351.92 113.314C351.822 113.217 351.603 113.046 351.261 112.802C350.919 112.509 350.455 112.216 349.869 111.923C349.283 111.63 348.575 111.386 347.745 111.19C346.964 110.946 346.061 110.824 345.035 110.824C343.521 110.824 341.91 111.166 340.201 111.85C338.492 112.533 336.93 113.607 335.514 115.072C334.098 116.488 332.901 118.295 331.925 120.492C330.997 122.641 330.533 125.204 330.533 128.183C330.533 129.11 330.631 130.062 330.826 131.039C331.021 131.967 331.363 132.821 331.852 133.603C332.34 134.384 332.999 135.019 333.829 135.507C334.659 135.995 335.685 136.239 336.905 136.239C337.784 136.239 338.785 135.946 339.908 135.36C341.08 134.774 342.179 133.871 343.204 132.65C344.278 131.43 345.23 129.892 346.061 128.036C346.939 126.181 347.55 123.983 347.892 121.444C347.989 120.761 348.307 120.199 348.844 119.76C349.381 119.271 350.016 119.027 350.748 119.027C351.432 119.027 352.018 119.296 352.506 119.833C353.043 120.37 353.336 120.98 353.385 121.664C353.434 122.592 353.531 123.91 353.678 125.619C353.824 127.279 354.142 128.939 354.63 130.6C355.167 132.26 355.948 133.7 356.974 134.921C357.999 136.142 359.415 136.752 361.222 136.752C362.394 136.752 363.541 136.435 364.664 135.8C365.836 135.165 366.959 134.335 368.033 133.31C369.156 132.235 370.206 131.039 371.183 129.721C372.208 128.354 373.136 126.986 373.966 125.619C374.796 124.252 375.528 122.934 376.163 121.664C376.798 120.395 377.335 119.296 377.774 118.368C378.019 117.831 378.36 117.416 378.8 117.123C379.288 116.83 379.801 116.684 380.338 116.684C381.168 116.684 381.827 117.001 382.315 117.636C382.853 118.222 383.121 118.856 383.121 119.54C383.121 119.882 383.048 120.224 382.901 120.565ZM439.591 120.712C439.444 121.005 439.127 121.615 438.639 122.543C438.15 123.422 437.516 124.472 436.734 125.692C435.953 126.864 435.025 128.134 433.951 129.501C432.877 130.819 431.705 132.04 430.436 133.163C429.166 134.286 427.799 135.214 426.334 135.946C424.869 136.679 423.355 137.045 421.793 137.045C419.254 137.045 417.105 136.605 415.348 135.727C413.59 134.799 412.149 133.773 411.026 132.65C410.245 134.359 409.293 135.922 408.17 137.338C407.047 138.754 405.802 139.975 404.435 141C403.067 142.074 401.603 142.904 400.04 143.49C398.526 144.076 396.964 144.369 395.353 144.369C392.374 144.369 389.835 143.49 387.735 141.732C385.636 139.975 383.878 137.631 382.462 134.701C381.095 131.723 380.021 128.28 379.239 124.374C378.458 120.468 377.848 116.366 377.408 112.069C377.018 107.772 376.773 103.427 376.676 99.0322C376.578 94.6377 376.529 90.4629 376.529 86.5078C376.529 78.9395 376.749 72.3965 377.188 66.8789C377.628 61.3125 378.214 56.6006 378.946 52.7432C379.728 48.8369 380.606 45.6875 381.583 43.2949C382.608 40.8535 383.683 38.9736 384.806 37.6553C385.929 36.2881 387.076 35.3604 388.248 34.8721C389.42 34.3838 390.567 34.1396 391.69 34.1396C393.497 34.1396 395.084 34.6768 396.451 35.751C397.867 36.8252 399.039 38.3389 399.967 40.292C400.943 42.1963 401.676 44.5156 402.164 47.25C402.652 49.9844 402.896 52.9873 402.896 56.2588C402.896 61.4834 402.335 66.8789 401.212 72.4453C400.089 78.0117 398.624 83.5781 396.817 89.1445C395.06 94.6621 393.082 100.106 390.885 105.478C388.688 110.8 386.515 115.854 384.366 120.639C384.659 123.031 385.099 125.326 385.685 127.523C386.271 129.672 387.027 131.601 387.955 133.31C388.883 134.97 389.981 136.312 391.251 137.338C392.521 138.314 393.985 138.803 395.646 138.803C397.306 138.803 398.868 138.339 400.333 137.411C401.798 136.435 403.067 135.189 404.142 133.676C405.216 132.113 406.046 130.355 406.632 128.402C407.267 126.449 407.584 124.447 407.584 122.396C407.584 121.029 407.438 119.662 407.145 118.295C406.9 116.879 406.485 115.634 405.899 114.56C405.362 113.437 404.679 112.533 403.849 111.85C403.019 111.166 402.018 110.824 400.846 110.824C399.967 110.824 399.283 111.02 398.795 111.41C398.307 111.752 397.94 112.167 397.696 112.655C397.452 113.095 397.306 113.534 397.257 113.974C397.208 114.413 397.184 114.706 397.184 114.853C397.184 115.536 397.33 116.22 397.623 116.903C397.916 117.587 398.478 118.197 399.308 118.734C400.138 119.32 400.553 120.126 400.553 121.151C400.553 121.981 400.26 122.641 399.674 123.129C399.137 123.617 398.526 123.861 397.843 123.861C396.866 123.861 395.987 123.568 395.206 122.982C394.474 122.396 393.839 121.664 393.302 120.785C392.765 119.857 392.35 118.881 392.057 117.855C391.764 116.83 391.617 115.878 391.617 114.999C391.617 113.583 391.861 112.289 392.35 111.117C392.838 109.896 393.497 108.871 394.327 108.041C395.206 107.162 396.183 106.503 397.257 106.063C398.38 105.575 399.552 105.331 400.772 105.331C402.872 105.331 404.679 105.819 406.192 106.796C407.755 107.772 409.049 109.066 410.074 110.678C411.1 112.289 411.856 114.12 412.345 116.171C412.833 118.222 413.077 120.297 413.077 122.396C413.077 123.617 413.004 124.813 412.857 125.985C413.053 126.376 413.37 126.889 413.81 127.523C414.249 128.158 414.835 128.769 415.567 129.354C416.3 129.94 417.179 130.453 418.204 130.893C419.229 131.332 420.426 131.552 421.793 131.552C422.965 131.552 424.161 131.112 425.382 130.233C426.651 129.306 427.848 128.183 428.971 126.864C430.143 125.497 431.217 124.057 432.193 122.543C433.17 120.98 433.976 119.54 434.61 118.222C434.854 117.733 435.196 117.367 435.636 117.123C436.075 116.83 436.563 116.684 437.101 116.684C437.931 116.684 438.59 116.977 439.078 117.562C439.615 118.148 439.884 118.808 439.884 119.54C439.884 119.833 439.786 120.224 439.591 120.712ZM382.975 111.264C384.635 107.162 386.319 102.865 388.028 98.373C389.737 93.832 391.275 89.2178 392.643 84.5303C394.01 79.8428 395.133 75.1064 396.012 70.3213C396.891 65.5361 397.33 60.8242 397.33 56.1855C397.33 54.4277 397.232 52.5967 397.037 50.6924C396.891 48.7393 396.598 46.957 396.158 45.3457C395.719 43.7344 395.108 42.3916 394.327 41.3174C393.595 40.2432 392.643 39.7061 391.471 39.7061C391.08 39.7061 390.567 39.9746 389.933 40.5117C389.347 41 388.712 41.9033 388.028 43.2217C387.345 44.4912 386.661 46.2734 385.978 48.5684C385.294 50.8633 384.659 53.793 384.073 57.3574C383.536 60.873 383.072 65.1211 382.682 70.1016C382.34 75.082 382.169 80.9414 382.169 87.6797C382.169 89.9258 382.193 92.2207 382.242 94.5645C382.291 96.8594 382.34 99.0566 382.389 101.156C382.486 103.256 382.584 105.185 382.682 106.942C382.779 108.7 382.877 110.141 382.975 111.264ZM442.813 113.9C442.521 114.682 442.154 115.561 441.715 116.537C441.324 117.514 440.86 118.539 440.323 119.613C439.884 120.443 439.42 121.103 438.932 121.591C438.492 122.03 437.906 122.25 437.174 122.25C436.344 122.25 435.685 122.006 435.196 121.518C434.708 120.98 434.464 120.37 434.464 119.687C434.464 119.442 434.488 119.247 434.537 119.101C434.586 118.905 434.708 118.612 434.903 118.222C436.173 115.78 437.101 113.656 437.687 111.85C438.321 109.994 438.834 108.065 439.225 106.063C438.883 104.94 438.639 103.988 438.492 103.207C438.346 102.426 438.272 101.62 438.272 100.79C438.272 99.1787 438.614 97.8848 439.298 96.9082C439.981 95.8828 440.934 95.3701 442.154 95.3701C443.277 95.3701 444.156 95.8584 444.791 96.835C445.475 97.8115 445.816 99.0078 445.816 100.424C445.816 101.205 445.743 101.986 445.597 102.768C445.45 103.549 445.255 104.525 445.011 105.697C446.134 108.48 447.257 110.946 448.38 113.095C449.503 115.243 450.504 117.221 451.383 119.027C452.262 120.785 452.97 122.445 453.507 124.008C454.093 125.57 454.386 127.133 454.386 128.695C454.386 130.746 453.971 132.699 453.141 134.555C452.311 136.41 450.943 137.973 449.039 139.242C449.283 139.291 449.527 139.315 449.771 139.315C450.016 139.315 450.26 139.315 450.504 139.315C453.287 139.315 455.851 138.681 458.194 137.411C460.538 136.142 462.638 134.506 464.493 132.504C466.397 130.453 468.082 128.207 469.547 125.766C471.012 123.275 472.281 120.81 473.355 118.368C473.844 117.245 474.527 116.684 475.406 116.684C476.236 116.684 476.871 116.977 477.311 117.562C477.799 118.148 478.043 118.783 478.043 119.467C478.043 119.857 477.97 120.224 477.823 120.565C477.286 121.884 476.578 123.397 475.699 125.106C474.869 126.767 473.844 128.5 472.623 130.307C471.451 132.064 470.084 133.798 468.521 135.507C466.959 137.216 465.201 138.754 463.248 140.121C461.344 141.439 459.244 142.489 456.949 143.271C454.654 144.101 452.14 144.516 449.405 144.516C446.134 144.516 443.082 143.93 440.25 142.758C437.467 141.635 435.196 139.755 433.438 137.118C433.146 136.679 432.999 136.215 432.999 135.727C432.999 134.994 433.268 134.359 433.805 133.822C434.391 133.236 435.05 132.943 435.782 132.943C436.563 132.943 437.223 133.212 437.76 133.749C437.809 133.847 437.979 134.018 438.272 134.262C438.565 134.457 438.907 134.701 439.298 134.994C439.737 135.238 440.226 135.458 440.763 135.653C441.349 135.849 441.935 135.946 442.521 135.946C443.692 135.946 444.669 135.702 445.45 135.214C446.28 134.726 446.939 134.14 447.428 133.456C447.916 132.724 448.258 131.967 448.453 131.186C448.697 130.355 448.819 129.647 448.819 129.062C448.819 127.841 448.624 126.62 448.233 125.399C447.843 124.179 447.33 122.958 446.695 121.737C446.109 120.517 445.45 119.271 444.718 118.002C444.034 116.684 443.399 115.316 442.813 113.9Z" fill="#0A4284"/>
<path d="M537.665 118.609C531.799 117.083 525.99 118.044 521.427 121.107C518.935 116.209 514.331 112.539 508.464 111.013C503.353 109.69 497.926 110.449 493.373 113.122C488.821 115.795 485.514 120.165 484.179 125.272C478.684 146.396 505.191 171.311 506.32 172.363C506.759 172.77 507.293 173.063 507.873 173.214C508.453 173.365 509.061 173.369 509.643 173.227C511.142 172.859 546.429 164.018 551.924 142.895C553.247 137.783 552.489 132.356 549.816 127.804C547.143 123.251 542.773 119.944 537.665 118.609ZM525.249 159.762C520.284 162.155 515.129 164.13 509.836 165.667C505.963 161.746 502.423 157.509 499.254 153C494.338 145.926 488.952 135.686 491.187 127.095C492.033 123.843 494.137 121.059 497.035 119.358C499.933 117.656 503.389 117.175 506.641 118.021C511.839 119.373 515.476 123.25 516.133 128.141C516.229 128.854 516.535 129.522 517.011 130.061C517.488 130.599 518.115 130.984 518.811 131.165C519.507 131.346 520.241 131.316 520.92 131.078C521.599 130.84 522.191 130.405 522.622 129.829C525.579 125.878 530.644 124.265 535.842 125.617C539.095 126.463 541.878 128.567 543.58 131.465C545.282 134.363 545.762 137.819 544.916 141.072C542.681 149.662 532.988 155.98 525.249 159.762Z" fill="#0A4284"/>
</svg>
