<svg width="849" height="230" viewBox="0 0 849 230" fill="none" xmlns="http://www.w3.org/2000/svg">
<path d="M60.1074 87.4062H40.8203V114.604C40.8203 117.11 40.153 118.933 38.8184 120.072C37.5163 121.212 35.5143 121.781 32.8125 121.781C30.0781 121.781 28.0599 121.212 26.7578 120.072C25.4557 118.933 24.8047 117.11 24.8047 114.604V87.4062H17.1875V83.1094H24.8047V52.3965C23.763 52.4941 22.5586 52.6895 21.1914 52.9824C19.8568 53.2428 18.4733 53.6335 17.041 54.1543C15.6413 54.6426 14.2578 55.2285 12.8906 55.9121C11.5234 56.5957 10.3027 57.3932 9.22852 58.3047C8.1543 59.2161 7.27539 60.2415 6.5918 61.3809C5.94076 62.4876 5.61523 63.6921 5.61523 64.9941C5.61523 66.0358 5.74544 66.8659 6.00586 67.4844C6.29883 68.1029 6.62435 68.5749 6.98242 68.9004C7.34049 69.1934 7.69857 69.3887 8.05664 69.4863C8.44727 69.5514 8.72396 69.584 8.88672 69.584C9.70052 69.584 10.3678 69.4538 10.8887 69.1934C11.4095 68.9004 11.8815 68.6074 12.3047 68.3145C12.7279 67.9889 13.1185 67.696 13.4766 67.4355C13.8672 67.1426 14.3066 66.9961 14.7949 66.9961C15.1855 66.9961 15.5924 67.0938 16.0156 67.2891C16.4714 67.4518 16.8783 67.7285 17.2363 68.1191C17.627 68.5098 17.9525 69.0306 18.2129 69.6816C18.4733 70.3001 18.6035 71.0651 18.6035 71.9766C18.6035 73.2786 18.3431 74.418 17.8223 75.3945C17.334 76.3385 16.6829 77.1198 15.8691 77.7383C15.0879 78.3568 14.1764 78.8288 13.1348 79.1543C12.1257 79.4473 11.1165 79.5938 10.1074 79.5938C8.54492 79.5938 7.12891 79.3333 5.85938 78.8125C4.6224 78.2591 3.56445 77.5104 2.68555 76.5664C1.80664 75.6224 1.13932 74.5319 0.683594 73.2949C0.227865 72.0254 0 70.6582 0 69.1934C0 65.3848 1.04167 62.1458 3.125 59.4766C5.24089 56.8073 8.12174 54.6263 11.7676 52.9336C15.4134 51.2083 19.6615 49.9551 24.5117 49.1738C29.362 48.3926 34.554 48.002 40.0879 48.002C42.334 48.002 44.6777 48.0345 47.1191 48.0996C49.5605 48.1322 51.8555 48.1973 54.0039 48.2949C56.1849 48.3926 58.1055 48.5065 59.7656 48.6367C61.4258 48.7669 62.5977 48.9134 63.2812 49.0762C63.9323 49.2389 64.4531 49.418 64.8438 49.6133C65.2344 49.8086 65.5273 50.0365 65.7227 50.2969C65.918 50.5573 66.0482 50.8665 66.1133 51.2246C66.1784 51.5501 66.2109 51.9408 66.2109 52.3965C66.2109 52.7871 66.1621 53.2266 66.0645 53.7148C65.9668 54.1706 65.8203 54.61 65.625 55.0332C65.4297 55.4238 65.1855 55.7656 64.8926 56.0586C64.5996 56.3516 64.2415 56.498 63.8184 56.498C63.5579 56.498 63.265 56.3841 62.9395 56.1562C62.6465 55.9284 62.207 55.6354 61.6211 55.2773C61.0677 54.9193 60.3027 54.5449 59.3262 54.1543C58.3822 53.7637 57.0964 53.3893 55.4688 53.0312C53.8737 52.6732 51.8717 52.3802 49.4629 52.1523C47.0866 51.9245 44.2057 51.8105 40.8203 51.8105V83.1094H60.1074V87.4062ZM84.9609 80.6191C86.1979 78.7311 87.5163 77.0221 88.916 75.4922C89.502 74.8411 90.1367 74.2064 90.8203 73.5879C91.5039 72.9694 92.2038 72.416 92.9199 71.9277C93.6686 71.4395 94.4336 71.0488 95.2148 70.7559C95.9961 70.4629 96.7773 70.3164 97.5586 70.3164C99.2188 70.3164 100.521 70.821 101.465 71.8301C102.409 72.8066 102.881 74.1901 102.881 75.9805C102.881 77.0872 102.783 78.1615 102.588 79.2031C102.425 80.2122 102.083 81.4492 101.562 82.9141H100.195C100 81.9049 99.5443 81.0749 98.8281 80.4238C98.112 79.7402 97.0703 79.3984 95.7031 79.3984C94.694 79.3984 93.7012 79.5938 92.7246 79.9844C91.748 80.3424 90.7878 80.7982 89.8438 81.3516C88.9323 81.9049 88.0534 82.5072 87.207 83.1582C86.3932 83.8092 85.6445 84.4277 84.9609 85.0137V116.703C84.9609 117.126 84.8958 117.631 84.7656 118.217C84.6354 118.803 84.3099 119.356 83.7891 119.877C83.3008 120.398 82.5521 120.837 81.543 121.195C80.5664 121.586 79.2155 121.781 77.4902 121.781C75.765 121.781 74.3978 121.57 73.3887 121.146C72.4121 120.756 71.6634 120.284 71.1426 119.73C70.6217 119.177 70.2962 118.607 70.166 118.021C70.0358 117.436 69.9707 116.964 69.9707 116.605V78.9102C69.9707 77.9661 69.7428 77.1523 69.2871 76.4688C68.8639 75.7526 68.1315 75.3945 67.0898 75.3945C66.5365 75.3945 66.0645 75.4922 65.6738 75.6875C65.2832 75.8828 64.86 76.1595 64.4043 76.5176L63.3789 75.2969C64.1276 74.6784 64.9577 74.0762 65.8691 73.4902C66.8132 72.8717 67.8223 72.3346 68.8965 71.8789C69.9707 71.4232 71.1263 71.0488 72.3633 70.7559C73.6003 70.4629 74.9023 70.3164 76.2695 70.3164C77.6693 70.3164 78.8574 70.5117 79.834 70.9023C80.8431 71.2604 81.6569 71.7487 82.2754 72.3672C82.9264 72.9531 83.431 73.6204 83.7891 74.3691C84.1471 75.1178 84.4076 75.8828 84.5703 76.6641C84.7656 77.4128 84.8796 78.1452 84.9121 78.8613C84.9447 79.5449 84.9609 80.1309 84.9609 80.6191ZM105.029 96C105.029 91.7357 105.648 88.0085 106.885 84.8184C108.122 81.5957 109.766 78.9102 111.816 76.7617C113.9 74.6133 116.309 73.002 119.043 71.9277C121.777 70.8535 124.642 70.3164 127.637 70.3164C130.632 70.3164 133.496 70.821 136.23 71.8301C138.965 72.8066 141.357 74.3203 143.408 76.3711C145.492 78.4219 147.152 81.026 148.389 84.1836C149.626 87.3086 150.244 91.0195 150.244 95.3164C150.244 99.5807 149.626 103.357 148.389 106.645C147.152 109.932 145.492 112.699 143.408 114.945C141.357 117.191 138.965 118.9 136.23 120.072C133.496 121.212 130.632 121.781 127.637 121.781C124.642 121.781 121.777 121.244 119.043 120.17C116.309 119.063 113.9 117.436 111.816 115.287C109.766 113.139 108.122 110.453 106.885 107.23C105.648 104.008 105.029 100.264 105.029 96ZM135.059 95.5117C135.059 92.9076 134.961 90.401 134.766 87.9922C134.603 85.5508 134.261 83.3861 133.74 81.498C133.219 79.61 132.471 78.1126 131.494 77.0059C130.518 75.8665 129.232 75.2969 127.637 75.2969C126.042 75.2969 124.756 75.8991 123.779 77.1035C122.803 78.2754 122.054 79.8379 121.533 81.791C121.012 83.7116 120.671 85.9089 120.508 88.3828C120.345 90.8568 120.264 93.3958 120.264 96C120.264 98.6042 120.345 101.16 120.508 103.666C120.671 106.14 121.012 108.354 121.533 110.307C122.054 112.26 122.803 113.839 123.779 115.043C124.756 116.215 126.042 116.801 127.637 116.801C129.232 116.801 130.518 116.182 131.494 114.945C132.471 113.708 133.219 112.081 133.74 110.062C134.261 108.044 134.603 105.766 134.766 103.227C134.961 100.688 135.059 98.1159 135.059 95.5117ZM201.123 116.703C201.123 117.126 201.058 117.631 200.928 118.217C200.798 118.803 200.472 119.356 199.951 119.877C199.463 120.398 198.714 120.837 197.705 121.195C196.696 121.586 195.329 121.781 193.604 121.781C191.878 121.781 190.511 121.57 189.502 121.146C188.525 120.756 187.777 120.284 187.256 119.73C186.768 119.177 186.458 118.607 186.328 118.021C186.198 117.436 186.133 116.964 186.133 116.605V82.084C186.133 81.6283 186.068 81.1725 185.938 80.7168C185.807 80.2285 185.612 79.7891 185.352 79.3984C185.091 79.0078 184.766 78.6986 184.375 78.4707C183.984 78.2103 183.529 78.0801 183.008 78.0801C182.129 78.0801 181.266 78.3405 180.42 78.8613C179.574 79.3496 178.776 79.9193 178.027 80.5703C177.311 81.2214 176.676 81.8724 176.123 82.5234C175.602 83.1745 175.228 83.6628 175 83.9883V116.703C175 117.126 174.935 117.631 174.805 118.217C174.674 118.803 174.349 119.356 173.828 119.877C173.34 120.398 172.591 120.837 171.582 121.195C170.605 121.586 169.255 121.781 167.529 121.781C165.804 121.781 164.437 121.57 163.428 121.146C162.451 120.756 161.702 120.284 161.182 119.73C160.661 119.177 160.335 118.607 160.205 118.021C160.075 117.436 160.01 116.964 160.01 116.605V78.9102C160.01 77.9661 159.782 77.1523 159.326 76.4688C158.903 75.7526 158.171 75.3945 157.129 75.3945C156.576 75.3945 156.104 75.4922 155.713 75.6875C155.322 75.8828 154.899 76.1595 154.443 76.5176L153.418 75.2969C154.167 74.6784 154.997 74.0762 155.908 73.4902C156.852 72.8717 157.861 72.3346 158.936 71.8789C160.01 71.4232 161.165 71.0488 162.402 70.7559C163.639 70.4629 164.941 70.3164 166.309 70.3164C168.424 70.3164 170.068 70.6745 171.24 71.3906C172.412 72.0742 173.275 72.9043 173.828 73.8809C174.382 74.8574 174.707 75.8828 174.805 76.957C174.935 77.9987 175 78.8776 175 79.5938C176.53 77.8685 178.174 76.3223 179.932 74.9551C180.648 74.3691 181.429 73.7995 182.275 73.2461C183.154 72.6927 184.049 72.2044 184.961 71.7812C185.872 71.3255 186.816 70.9674 187.793 70.707C188.77 70.4466 189.746 70.3164 190.723 70.3164C192.611 70.3164 194.222 70.6582 195.557 71.3418C196.891 72.0254 197.965 72.8555 198.779 73.832C199.593 74.776 200.179 75.7852 200.537 76.8594C200.928 77.901 201.123 78.8125 201.123 79.5938C202.686 77.8685 204.329 76.3223 206.055 74.9551C206.771 74.3691 207.552 73.7995 208.398 73.2461C209.245 72.6927 210.124 72.2044 211.035 71.7812C211.979 71.3255 212.923 70.9674 213.867 70.707C214.844 70.4466 215.82 70.3164 216.797 70.3164C218.685 70.3164 220.296 70.6745 221.631 71.3906C222.965 72.0742 224.04 72.9857 224.854 74.125C225.667 75.2643 226.253 76.5501 226.611 77.9824C227.002 79.4147 227.197 80.847 227.197 82.2793V112.504C227.197 112.797 227.214 113.122 227.246 113.48C227.279 113.806 227.36 114.132 227.49 114.457C227.62 114.75 227.816 114.994 228.076 115.189C228.369 115.385 228.743 115.482 229.199 115.482C229.818 115.482 230.371 115.271 230.859 114.848C231.348 114.392 231.803 113.936 232.227 113.48L233.398 114.506C232.943 115.189 232.34 115.954 231.592 116.801C230.843 117.615 229.948 118.396 228.906 119.145C227.897 119.893 226.709 120.512 225.342 121C224.007 121.521 222.493 121.781 220.801 121.781C219.368 121.781 218.115 121.586 217.041 121.195C215.999 120.837 215.104 120.349 214.355 119.73C213.639 119.079 213.102 118.331 212.744 117.484C212.386 116.605 212.207 115.678 212.207 114.701V82.084C212.207 81.6283 212.142 81.1725 212.012 80.7168C211.882 80.2285 211.686 79.7891 211.426 79.3984C211.198 79.0078 210.889 78.6986 210.498 78.4707C210.107 78.2103 209.652 78.0801 209.131 78.0801C208.252 78.0801 207.373 78.3405 206.494 78.8613C205.648 79.3496 204.85 79.9193 204.102 80.5703C203.385 81.2214 202.767 81.8724 202.246 82.5234C201.725 83.1745 201.351 83.6628 201.123 83.9883V116.703ZM280.078 100.395H261.67C260.303 104.691 258.822 108.419 257.227 111.576C255.664 114.734 253.923 117.354 252.002 119.438C250.081 121.521 247.965 123.067 245.654 124.076C243.376 125.085 240.82 125.59 237.988 125.59C236.426 125.59 234.928 125.443 233.496 125.15C232.031 124.89 230.745 124.516 229.639 124.027C228.532 123.539 227.653 122.953 227.002 122.27C226.318 121.618 225.977 120.902 225.977 120.121C225.977 119.535 226.074 118.949 226.27 118.363C226.432 117.745 226.676 117.191 227.002 116.703C227.327 116.182 227.734 115.775 228.223 115.482C228.678 115.157 229.199 114.994 229.785 114.994C230.306 114.994 230.762 115.352 231.152 116.068C231.543 116.785 232.048 117.582 232.666 118.461C233.252 119.307 234.017 120.089 234.961 120.805C235.905 121.521 237.207 121.879 238.867 121.879C240.56 121.879 242.171 121.472 243.701 120.658C245.231 119.844 246.696 118.575 248.096 116.85C249.528 115.092 250.895 112.862 252.197 110.16C253.499 107.458 254.769 104.203 256.006 100.395H244.482V96.0977H257.275C258.35 92.4518 259.391 88.7734 260.4 85.0625C261.442 81.3516 262.419 77.7871 263.33 74.3691C264.242 70.9512 265.055 67.7611 265.771 64.7988C266.488 61.804 267.09 59.1999 267.578 56.9863C266.927 55.1634 266.032 53.9427 264.893 53.3242C263.786 52.7057 262.288 52.3965 260.4 52.3965C258.643 52.3965 256.82 52.6732 254.932 53.2266C253.076 53.7474 251.383 54.5124 249.854 55.5215C248.324 56.498 247.054 57.7188 246.045 59.1836C245.068 60.6159 244.58 62.2272 244.58 64.0176C244.58 65.0592 244.71 65.8893 244.971 66.5078C245.264 67.1263 245.589 67.5983 245.947 67.9238C246.338 68.2168 246.712 68.4121 247.07 68.5098C247.428 68.5749 247.705 68.6074 247.9 68.6074C248.682 68.6074 249.333 68.4772 249.854 68.2168C250.407 67.9238 250.879 67.6309 251.27 67.3379C251.693 67.0124 252.1 66.7194 252.49 66.459C252.881 66.166 253.32 66.0195 253.809 66.0195C254.167 66.0195 254.557 66.1172 254.98 66.3125C255.436 66.4753 255.843 66.752 256.201 67.1426C256.592 67.5332 256.917 68.054 257.178 68.7051C257.438 69.3236 257.568 70.0885 257.568 71C257.568 72.3021 257.308 73.4251 256.787 74.3691C256.299 75.3132 255.648 76.1107 254.834 76.7617C254.053 77.3802 253.141 77.8522 252.1 78.1777C251.09 78.4707 250.081 78.6172 249.072 78.6172C247.51 78.6172 246.094 78.3405 244.824 77.7871C243.587 77.2012 242.529 76.4199 241.65 75.4434C240.771 74.4668 240.104 73.3275 239.648 72.0254C239.193 70.7233 238.965 69.3561 238.965 67.9238C238.965 65.7754 239.323 63.806 240.039 62.0156C240.755 60.1927 241.748 58.5488 243.018 57.084C244.287 55.5866 245.785 54.2845 247.51 53.1777C249.235 52.0384 251.09 51.0944 253.076 50.3457C255.094 49.5645 257.194 48.9785 259.375 48.5879C261.556 48.1973 263.753 48.002 265.967 48.002C269.092 48.002 271.729 48.2624 273.877 48.7832C276.058 49.2715 277.881 50.0202 279.346 51.0293C280.811 52.0059 281.982 53.2591 282.861 54.7891C283.773 56.2865 284.521 58.028 285.107 60.0137L295.605 96.0977H306.201V100.395H296.777L300.586 113.188C300.716 113.676 300.846 114.132 300.977 114.555C301.107 114.978 301.253 115.352 301.416 115.678C301.611 115.971 301.839 116.215 302.1 116.41C302.393 116.605 302.751 116.703 303.174 116.703C304.085 116.703 304.932 116.557 305.713 116.264C306.494 115.938 307.178 115.613 307.764 115.287L308.594 117.094C308.008 117.517 307.259 118.005 306.348 118.559C305.469 119.079 304.443 119.584 303.271 120.072C302.132 120.561 300.863 120.967 299.463 121.293C298.063 121.618 296.566 121.781 294.971 121.781C292.757 121.781 290.967 121.505 289.6 120.951C288.265 120.398 287.207 119.714 286.426 118.9C285.677 118.087 285.124 117.224 284.766 116.312C284.44 115.401 284.18 114.604 283.984 113.92L280.078 100.395ZM270.605 67.3867C269.271 72.8229 267.969 77.9336 266.699 82.7188C265.462 87.5039 264.225 91.9635 262.988 96.0977H278.906L270.605 67.3867ZM342.188 96.6836C342.188 93.8516 342.041 91.1986 341.748 88.7246C341.455 86.2181 340.983 84.0371 340.332 82.1816C339.681 80.2936 338.851 78.8125 337.842 77.7383C336.833 76.6315 335.612 76.0781 334.18 76.0781C333.073 76.0781 332.129 76.3548 331.348 76.9082C330.599 77.429 329.98 78.0312 329.492 78.7148C329.004 79.3984 328.646 80.082 328.418 80.7656C328.19 81.4167 328.076 81.8561 328.076 82.084V96.6836C328.076 103.78 328.662 108.939 329.834 112.162C331.038 115.385 332.796 116.996 335.107 116.996C337.549 116.996 339.339 115.352 340.479 112.064C341.618 108.777 342.188 103.65 342.188 96.6836ZM313.086 53.6172C313.086 52.6732 312.858 51.8594 312.402 51.1758C311.979 50.4596 311.247 50.1016 310.205 50.1016C309.652 50.1016 309.163 50.1992 308.74 50.3945C308.35 50.5573 307.926 50.8177 307.471 51.1758L306.494 50.0039C307.243 49.3854 308.073 48.7832 308.984 48.1973C309.928 47.5788 310.938 47.0417 312.012 46.5859C313.086 46.1302 314.242 45.7559 315.479 45.4629C316.715 45.1699 318.018 45.0234 319.385 45.0234C321.273 45.0234 322.786 45.3164 323.926 45.9023C325.098 46.4557 325.977 47.1556 326.562 48.002C327.181 48.8158 327.588 49.7109 327.783 50.6875C327.979 51.6315 328.076 52.5104 328.076 53.3242V75.1016C328.467 74.7435 328.971 74.304 329.59 73.7832C330.208 73.2298 330.99 72.6927 331.934 72.1719C332.878 71.651 334.001 71.2116 335.303 70.8535C336.637 70.4954 338.2 70.3164 339.99 70.3164C342.074 70.3164 344.157 70.8047 346.24 71.7812C348.324 72.7253 350.195 74.2227 351.855 76.2734C353.516 78.3242 354.867 80.9609 355.908 84.1836C356.95 87.4062 357.471 91.2799 357.471 95.8047C357.471 99.3529 356.982 102.706 356.006 105.863C355.062 109.021 353.646 111.788 351.758 114.164C349.87 116.508 347.51 118.363 344.678 119.73C341.846 121.098 338.558 121.781 334.814 121.781C330.745 121.781 327.311 121.13 324.512 119.828C321.745 118.493 319.515 116.719 317.822 114.506C316.13 112.26 314.909 109.656 314.16 106.693C313.444 103.731 313.086 100.606 313.086 97.3184V53.6172ZM363.818 96C363.818 91.7357 364.437 88.0085 365.674 84.8184C366.911 81.5957 368.555 78.9102 370.605 76.7617C372.689 74.6133 375.098 73.002 377.832 71.9277C380.566 70.8535 383.431 70.3164 386.426 70.3164C389.421 70.3164 392.285 70.821 395.02 71.8301C397.754 72.8066 400.146 74.3203 402.197 76.3711C404.281 78.4219 405.941 81.026 407.178 84.1836C408.415 87.3086 409.033 91.0195 409.033 95.3164C409.033 99.5807 408.415 103.357 407.178 106.645C405.941 109.932 404.281 112.699 402.197 114.945C400.146 117.191 397.754 118.9 395.02 120.072C392.285 121.212 389.421 121.781 386.426 121.781C383.431 121.781 380.566 121.244 377.832 120.17C375.098 119.063 372.689 117.436 370.605 115.287C368.555 113.139 366.911 110.453 365.674 107.23C364.437 104.008 363.818 100.264 363.818 96ZM393.848 95.5117C393.848 92.9076 393.75 90.401 393.555 87.9922C393.392 85.5508 393.05 83.3861 392.529 81.498C392.008 79.61 391.26 78.1126 390.283 77.0059C389.307 75.8665 388.021 75.2969 386.426 75.2969C384.831 75.2969 383.545 75.8991 382.568 77.1035C381.592 78.2754 380.843 79.8379 380.322 81.791C379.801 83.7116 379.46 85.9089 379.297 88.3828C379.134 90.8568 379.053 93.3958 379.053 96C379.053 98.6042 379.134 101.16 379.297 103.666C379.46 106.14 379.801 108.354 380.322 110.307C380.843 112.26 381.592 113.839 382.568 115.043C383.545 116.215 384.831 116.801 386.426 116.801C388.021 116.801 389.307 116.182 390.283 114.945C391.26 113.708 392.008 112.081 392.529 110.062C393.05 108.044 393.392 105.766 393.555 103.227C393.75 100.688 393.848 98.1159 393.848 95.5117ZM416.895 79.4961C416.699 78.194 416.374 77.1849 415.918 76.4688C415.495 75.7526 414.762 75.3945 413.721 75.3945C413.167 75.3945 412.679 75.4922 412.256 75.6875C411.865 75.8828 411.442 76.1595 410.986 76.5176L410.01 75.2969C410.758 74.6784 411.589 74.0762 412.5 73.4902C413.444 72.8717 414.453 72.3346 415.527 71.8789C416.602 71.4232 417.757 71.0488 418.994 70.7559C420.231 70.4629 421.533 70.3164 422.9 70.3164C424.854 70.3164 426.432 70.6582 427.637 71.3418C428.841 71.9928 429.785 72.8229 430.469 73.832C431.185 74.8086 431.689 75.8665 431.982 77.0059C432.275 78.1452 432.487 79.1706 432.617 80.082C433.822 89.9453 435.173 97.416 436.67 102.494C438.167 107.572 439.941 110.111 441.992 110.111C443.132 110.111 444.222 109.493 445.264 108.256C446.338 107.019 447.266 105.326 448.047 103.178C448.861 101.029 449.512 98.5228 450 95.6582C450.488 92.7936 450.732 89.7337 450.732 86.4785C450.732 84.3301 450.586 82.5234 450.293 81.0586C450 79.5612 449.674 78.3079 449.316 77.2988C448.958 76.2897 448.633 75.4596 448.34 74.8086C448.047 74.125 447.9 73.5228 447.9 73.002C447.9 72.5137 448.096 72.1068 448.486 71.7812C448.877 71.4557 449.333 71.179 449.854 70.9512C450.407 70.7233 450.96 70.5605 451.514 70.4629C452.1 70.3652 452.572 70.3164 452.93 70.3164C453.874 70.3164 454.557 70.4466 454.98 70.707C455.404 70.9674 455.745 71.472 456.006 72.2207C456.299 73.1647 456.494 74.418 456.592 75.9805C456.722 77.5104 456.787 79.1543 456.787 80.9121C456.787 83.4186 456.608 86.1693 456.25 89.1641C455.924 92.1589 455.404 95.1699 454.688 98.1973C454.004 101.225 453.125 104.154 452.051 106.986C450.977 109.818 449.691 112.341 448.193 114.555C446.729 116.736 445.052 118.493 443.164 119.828C441.309 121.13 439.225 121.781 436.914 121.781C434.212 121.781 431.868 121 429.883 119.438C427.897 117.875 426.204 115.84 424.805 113.334C423.438 110.827 422.298 108.012 421.387 104.887C420.475 101.762 419.727 98.6367 419.141 95.5117C418.587 92.3542 418.132 89.3757 417.773 86.5762C417.448 83.7441 417.155 81.3841 416.895 79.4961ZM477.588 98.5879C477.588 99.6296 477.734 100.769 478.027 102.006C478.353 103.21 478.809 104.431 479.395 105.668C479.98 106.905 480.697 108.093 481.543 109.232C482.422 110.339 483.415 111.332 484.521 112.211C485.661 113.09 486.914 113.79 488.281 114.311C489.648 114.831 491.146 115.092 492.773 115.092C493.913 115.092 494.971 114.962 495.947 114.701C496.924 114.441 497.835 114.083 498.682 113.627C499.528 113.171 500.342 112.65 501.123 112.064C501.904 111.446 502.686 110.795 503.467 110.111L504.688 111.283C503.939 112.292 502.979 113.399 501.807 114.604C500.635 115.808 499.219 116.947 497.559 118.021C495.898 119.063 493.962 119.942 491.748 120.658C489.535 121.342 487.012 121.684 484.18 121.684C481.348 121.684 478.581 121.179 475.879 120.17C473.21 119.128 470.833 117.582 468.75 115.531C466.667 113.48 464.99 110.925 463.721 107.865C462.484 104.805 461.865 101.225 461.865 97.123C461.865 94.1608 462.24 91.4427 462.988 88.9688C463.737 86.4948 464.746 84.265 466.016 82.2793C467.318 80.2936 468.815 78.5521 470.508 77.0547C472.233 75.5573 474.04 74.3203 475.928 73.3438C477.816 72.3346 479.736 71.5859 481.689 71.0977C483.675 70.5768 485.579 70.3164 487.402 70.3164C489.811 70.3164 491.911 70.5768 493.701 71.0977C495.492 71.6185 496.973 72.3184 498.145 73.1973C499.349 74.0762 500.244 75.1016 500.83 76.2734C501.416 77.4128 501.709 78.6172 501.709 79.8867C501.709 81.4167 501.27 82.8001 500.391 84.0371C499.512 85.2415 498.34 86.2995 496.875 87.2109L477.588 98.5879ZM487.402 88.6758C487.826 88.4154 488.167 88.1712 488.428 87.9434C488.721 87.6829 488.949 87.39 489.111 87.0645C489.274 86.7064 489.388 86.2832 489.453 85.7949C489.551 85.2741 489.6 84.6393 489.6 83.8906C489.6 83.0768 489.502 82.1816 489.307 81.2051C489.144 80.196 488.851 79.252 488.428 78.373C488.005 77.4941 487.467 76.7617 486.816 76.1758C486.165 75.5898 485.384 75.2969 484.473 75.2969C483.301 75.2969 482.292 75.6549 481.445 76.3711C480.632 77.0547 479.948 77.9499 479.395 79.0566C478.874 80.1634 478.451 81.4329 478.125 82.8652C477.832 84.265 477.604 85.681 477.441 87.1133C477.279 88.5456 477.181 89.929 477.148 91.2637C477.116 92.5658 477.1 93.6725 477.1 94.584L487.402 88.6758ZM619.434 110.653C619.391 110.738 619.137 111.098 618.672 111.732C618.206 112.367 617.529 113.15 616.641 114.081C615.794 114.97 614.715 115.943 613.403 117.001C612.134 118.017 610.61 118.969 608.833 119.857C607.098 120.704 605.13 121.423 602.93 122.016C600.729 122.608 598.296 122.904 595.63 122.904C591.483 122.904 587.59 122.375 583.95 121.317C580.311 120.302 576.799 118.99 573.413 117.382C570.07 115.774 566.769 113.996 563.511 112.05C560.252 110.103 556.93 108.199 553.545 106.337C551.471 109.807 549.08 112.642 546.372 114.843C543.706 117.001 540.913 118.694 537.993 119.921C535.116 121.148 532.238 121.973 529.36 122.396C526.525 122.862 523.901 123.095 521.489 123.095C519.162 123.095 516.792 122.841 514.38 122.333C512.01 121.868 509.852 121.085 507.905 119.984C506.001 118.842 504.435 117.361 503.208 115.541C501.981 113.721 501.367 111.457 501.367 108.749C501.367 106.21 501.96 103.925 503.145 101.894C504.287 99.82 505.874 98.0638 507.905 96.625C509.979 95.1862 512.412 94.0859 515.205 93.3242C517.998 92.5202 521.003 92.1182 524.219 92.1182C526.631 92.1182 529.022 92.3298 531.392 92.7529C533.804 93.1761 536.152 93.7474 538.438 94.4668C540.723 95.1862 542.944 96.0114 545.103 96.9424C547.261 97.8311 549.292 98.7409 551.196 99.6719C551.45 98.9102 551.662 98.1484 551.831 97.3867C552.043 96.625 552.212 95.7998 552.339 94.9111C552.508 93.9801 552.614 92.9645 552.656 91.8643C552.741 90.7217 552.783 89.4098 552.783 87.9287C552.783 86.5322 552.741 85.1992 552.656 83.9297C552.614 82.6602 552.55 81.2848 552.466 79.8037C552.424 78.2803 552.36 76.5876 552.275 74.7256C552.233 72.8213 552.212 70.5573 552.212 67.9336C552.212 61.8822 552.804 56.3809 553.989 51.4297C555.174 46.4362 556.93 42.1621 559.258 38.6074C561.585 35.0527 564.484 32.3021 567.954 30.3555C571.424 28.3665 575.465 27.3721 580.078 27.3721C582.871 27.3721 585.516 27.8164 588.013 28.7051C590.552 29.5938 592.773 30.8633 594.678 32.5137C596.624 34.1641 598.148 36.1318 599.248 38.417C600.391 40.7021 600.962 43.2412 600.962 46.0342C600.962 47.5576 600.75 49.1445 600.327 50.7949C599.904 52.4453 599.312 53.9688 598.55 55.3652C597.83 56.7194 596.984 57.8408 596.011 58.7295C595.08 59.6182 594.085 60.0625 593.027 60.0625C592.435 60.0625 591.906 59.8932 591.44 59.5547C590.975 59.2161 590.742 58.6872 590.742 57.9678C590.742 57.46 590.848 57.0368 591.06 56.6982C591.313 56.3174 591.61 55.9788 591.948 55.6826C593.175 54.5824 594.17 53.2282 594.932 51.6201C595.736 50.012 596.138 48.1501 596.138 46.0342C596.138 43.9183 595.693 42.014 594.805 40.3213C593.958 38.5863 592.795 37.1263 591.313 35.9414C589.875 34.7142 588.182 33.7832 586.235 33.1484C584.331 32.4714 582.321 32.1328 580.205 32.1328C576.227 32.1328 572.778 33.0003 569.858 34.7354C566.938 36.4704 564.526 38.9248 562.622 42.0986C560.718 45.2301 559.3 49.0387 558.369 53.5244C557.48 57.9678 557.036 62.9189 557.036 68.3779C557.036 71.0016 557.057 73.3079 557.1 75.2969C557.184 77.2858 557.248 79.1055 557.29 80.7559C557.375 82.4062 557.438 83.972 557.48 85.4531C557.565 86.8919 557.607 88.373 557.607 89.8965C557.607 90.7852 557.565 91.7585 557.48 92.8164C557.396 93.832 557.269 94.89 557.1 95.9902C556.93 97.0482 556.698 98.1061 556.401 99.1641C556.147 100.18 555.851 101.111 555.513 101.957C558.729 103.65 561.903 105.448 565.034 107.353C568.166 109.257 571.34 111.013 574.556 112.621C577.814 114.187 581.157 115.499 584.585 116.557C588.055 117.572 591.715 118.08 595.566 118.08C598.952 118.08 601.872 117.572 604.326 116.557C606.823 115.541 608.875 114.42 610.483 113.192C612.134 111.923 613.361 110.78 614.165 109.765C614.969 108.707 615.371 108.157 615.371 108.114C615.837 107.353 616.514 106.972 617.402 106.972C618.122 106.972 618.693 107.226 619.116 107.733C619.582 108.241 619.814 108.791 619.814 109.384C619.814 109.849 619.688 110.272 619.434 110.653ZM549.355 103.988C547.536 103.1 545.61 102.232 543.579 101.386C541.59 100.497 539.538 99.7142 537.422 99.0371C535.306 98.36 533.127 97.8311 530.884 97.4502C528.683 97.027 526.483 96.8154 524.282 96.8154C521.785 96.8154 519.437 97.0905 517.236 97.6406C515.036 98.1484 513.11 98.9102 511.46 99.9258C509.81 100.941 508.498 102.169 507.524 103.607C506.593 105.046 506.128 106.675 506.128 108.495C506.128 110.188 506.551 111.669 507.397 112.938C508.244 114.166 509.365 115.202 510.762 116.049C512.201 116.853 513.851 117.466 515.713 117.89C517.575 118.271 519.521 118.461 521.553 118.461C524.007 118.461 526.546 118.271 529.17 117.89C531.794 117.466 534.333 116.726 536.787 115.668C539.242 114.568 541.548 113.087 543.706 111.225C545.864 109.32 547.747 106.908 549.355 103.988ZM673.833 103.29C673.664 103.629 673.304 104.348 672.754 105.448C672.246 106.506 671.569 107.733 670.723 109.13C669.919 110.526 668.966 111.986 667.866 113.51C666.766 115.033 665.539 116.43 664.185 117.699C662.83 118.969 661.37 120.027 659.805 120.873C658.239 121.677 656.589 122.079 654.854 122.079C652.399 122.079 650.326 121.296 648.633 119.73C646.982 118.165 645.776 116.197 645.015 113.827C643.576 116.239 641.862 118.165 639.873 119.604C637.884 121 635.895 121.698 633.906 121.698C632.34 121.698 630.923 121.423 629.653 120.873C628.384 120.281 627.305 119.477 626.416 118.461C625.527 117.403 624.829 116.176 624.321 114.779C623.856 113.383 623.623 111.859 623.623 110.209C623.623 106.908 624.173 104.009 625.273 101.513C626.416 98.9736 627.855 96.8577 629.59 95.165C631.325 93.4723 633.229 92.2028 635.303 91.3564C637.419 90.5101 639.45 90.0869 641.396 90.0869C642.708 90.0869 643.914 90.2773 645.015 90.6582C646.115 90.9967 647.046 91.3776 647.808 91.8008C648.612 92.224 649.225 92.626 649.648 93.0068C650.072 93.3454 650.304 93.5358 650.347 93.5781C650.812 94.1283 651.045 94.6995 651.045 95.292C651.045 95.9268 650.812 96.498 650.347 97.0059C649.881 97.4714 649.331 97.7041 648.696 97.7041C648.019 97.7041 647.448 97.4714 646.982 97.0059C646.898 96.9212 646.707 96.7731 646.411 96.5615C646.115 96.3076 645.713 96.0537 645.205 95.7998C644.697 95.5459 644.084 95.3343 643.364 95.165C642.687 94.9535 641.904 94.8477 641.016 94.8477C639.704 94.8477 638.307 95.1439 636.826 95.7363C635.345 96.3288 633.991 97.2598 632.764 98.5293C631.536 99.7565 630.5 101.322 629.653 103.227C628.849 105.089 628.447 107.31 628.447 109.892C628.447 110.696 628.532 111.521 628.701 112.367C628.87 113.171 629.167 113.912 629.59 114.589C630.013 115.266 630.584 115.816 631.304 116.239C632.023 116.662 632.912 116.874 633.97 116.874C634.731 116.874 635.599 116.62 636.572 116.112C637.588 115.604 638.54 114.822 639.429 113.764C640.36 112.706 641.185 111.373 641.904 109.765C642.666 108.157 643.195 106.252 643.491 104.052C643.576 103.459 643.851 102.973 644.316 102.592C644.782 102.169 645.332 101.957 645.967 101.957C646.559 101.957 647.067 102.19 647.49 102.655C647.956 103.121 648.21 103.65 648.252 104.242C648.294 105.046 648.379 106.189 648.506 107.67C648.633 109.109 648.908 110.548 649.331 111.986C649.797 113.425 650.474 114.674 651.362 115.731C652.251 116.789 653.478 117.318 655.044 117.318C656.06 117.318 657.054 117.043 658.027 116.493C659.043 115.943 660.016 115.224 660.947 114.335C661.921 113.404 662.83 112.367 663.677 111.225C664.565 110.04 665.369 108.855 666.089 107.67C666.808 106.485 667.443 105.342 667.993 104.242C668.543 103.142 669.009 102.19 669.39 101.386C669.601 100.92 669.897 100.561 670.278 100.307C670.701 100.053 671.146 99.9258 671.611 99.9258C672.331 99.9258 672.902 100.201 673.325 100.751C673.791 101.259 674.023 101.809 674.023 102.401C674.023 102.698 673.96 102.994 673.833 103.29ZM722.964 103.417C722.837 103.671 722.562 104.2 722.139 105.004C721.715 105.766 721.165 106.675 720.488 107.733C719.811 108.749 719.007 109.849 718.076 111.034C717.145 112.177 716.13 113.235 715.029 114.208C713.929 115.181 712.744 115.985 711.475 116.62C710.205 117.255 708.893 117.572 707.539 117.572C705.339 117.572 703.477 117.191 701.953 116.43C700.43 115.626 699.181 114.737 698.208 113.764C697.531 115.245 696.706 116.599 695.732 117.826C694.759 119.053 693.68 120.111 692.495 121C691.31 121.931 690.041 122.65 688.687 123.158C687.375 123.666 686.021 123.92 684.624 123.92C682.043 123.92 679.842 123.158 678.022 121.635C676.203 120.111 674.679 118.08 673.452 115.541C672.267 112.96 671.336 109.976 670.659 106.591C669.982 103.205 669.453 99.6507 669.072 95.9268C668.734 92.2028 668.522 88.4365 668.438 84.6279C668.353 80.8193 668.311 77.2012 668.311 73.7734C668.311 67.2142 668.501 61.5436 668.882 56.7617C669.263 51.9375 669.771 47.8538 670.405 44.5107C671.082 41.1253 671.844 38.3958 672.69 36.3223C673.579 34.2064 674.51 32.5771 675.483 31.4346C676.457 30.2497 677.451 29.4456 678.467 29.0225C679.482 28.5993 680.477 28.3877 681.45 28.3877C683.016 28.3877 684.391 28.8532 685.576 29.7842C686.803 30.7152 687.819 32.027 688.623 33.7197C689.469 35.3701 690.104 37.3802 690.527 39.75C690.951 42.1198 691.162 44.7223 691.162 47.5576C691.162 52.0856 690.675 56.7617 689.702 61.5859C688.729 66.4102 687.459 71.2344 685.894 76.0586C684.37 80.8405 682.656 85.5589 680.752 90.2139C678.848 94.8265 676.965 99.2064 675.103 103.354C675.356 105.427 675.737 107.416 676.245 109.32C676.753 111.182 677.409 112.854 678.213 114.335C679.017 115.774 679.969 116.938 681.069 117.826C682.17 118.673 683.439 119.096 684.878 119.096C686.317 119.096 687.671 118.694 688.94 117.89C690.21 117.043 691.31 115.964 692.241 114.652C693.172 113.298 693.892 111.775 694.399 110.082C694.95 108.389 695.225 106.654 695.225 104.877C695.225 103.692 695.098 102.507 694.844 101.322C694.632 100.095 694.272 99.016 693.765 98.085C693.299 97.1117 692.707 96.3288 691.987 95.7363C691.268 95.1439 690.4 94.8477 689.385 94.8477C688.623 94.8477 688.031 95.0169 687.607 95.3555C687.184 95.6517 686.867 96.0114 686.655 96.4346C686.444 96.8154 686.317 97.1963 686.274 97.5771C686.232 97.958 686.211 98.2119 686.211 98.3389C686.211 98.9313 686.338 99.5238 686.592 100.116C686.846 100.709 687.332 101.238 688.052 101.703C688.771 102.211 689.131 102.909 689.131 103.798C689.131 104.517 688.877 105.089 688.369 105.512C687.904 105.935 687.375 106.146 686.782 106.146C685.936 106.146 685.174 105.893 684.497 105.385C683.862 104.877 683.312 104.242 682.847 103.48C682.381 102.676 682.021 101.83 681.768 100.941C681.514 100.053 681.387 99.2275 681.387 98.4658C681.387 97.2386 681.598 96.1172 682.021 95.1016C682.445 94.0436 683.016 93.1549 683.735 92.4355C684.497 91.6738 685.343 91.1025 686.274 90.7217C687.248 90.2985 688.263 90.0869 689.321 90.0869C691.141 90.0869 692.707 90.5101 694.019 91.3564C695.373 92.2028 696.494 93.3242 697.383 94.7207C698.271 96.1172 698.927 97.7041 699.351 99.4814C699.774 101.259 699.985 103.057 699.985 104.877C699.985 105.935 699.922 106.972 699.795 107.987C699.964 108.326 700.239 108.77 700.62 109.32C701.001 109.87 701.509 110.399 702.144 110.907C702.778 111.415 703.54 111.859 704.429 112.24C705.317 112.621 706.354 112.812 707.539 112.812C708.555 112.812 709.591 112.431 710.649 111.669C711.75 110.865 712.786 109.892 713.76 108.749C714.775 107.564 715.706 106.316 716.553 105.004C717.399 103.65 718.097 102.401 718.647 101.259C718.859 100.836 719.155 100.518 719.536 100.307C719.917 100.053 720.34 99.9258 720.806 99.9258C721.525 99.9258 722.096 100.18 722.52 100.688C722.985 101.195 723.218 101.767 723.218 102.401C723.218 102.655 723.133 102.994 722.964 103.417ZM673.896 95.2285C675.335 91.6738 676.795 87.9499 678.276 84.0566C679.757 80.1211 681.09 76.1221 682.275 72.0596C683.46 67.9971 684.434 63.8923 685.195 59.7451C685.957 55.598 686.338 51.5143 686.338 47.4941C686.338 45.9707 686.253 44.3838 686.084 42.7334C685.957 41.0407 685.703 39.4961 685.322 38.0996C684.941 36.7031 684.412 35.5394 683.735 34.6084C683.101 33.6774 682.275 33.2119 681.26 33.2119C680.921 33.2119 680.477 33.4447 679.927 33.9102C679.419 34.3333 678.869 35.1162 678.276 36.2588C677.684 37.359 677.091 38.9036 676.499 40.8926C675.907 42.8815 675.356 45.4206 674.849 48.5098C674.383 51.5566 673.981 55.2383 673.643 59.5547C673.346 63.8711 673.198 68.9492 673.198 74.7891C673.198 76.7357 673.219 78.7246 673.262 80.7559C673.304 82.7448 673.346 84.6491 673.389 86.4688C673.473 88.2884 673.558 89.96 673.643 91.4834C673.727 93.0068 673.812 94.2552 673.896 95.2285ZM725.757 97.5137C725.503 98.1908 725.186 98.9525 724.805 99.7988C724.466 100.645 724.064 101.534 723.599 102.465C723.218 103.184 722.816 103.756 722.393 104.179C722.012 104.56 721.504 104.75 720.869 104.75C720.15 104.75 719.578 104.538 719.155 104.115C718.732 103.65 718.521 103.121 718.521 102.528C718.521 102.317 718.542 102.147 718.584 102.021C718.626 101.851 718.732 101.597 718.901 101.259C720.002 99.1429 720.806 97.3021 721.313 95.7363C721.864 94.1283 722.308 92.4567 722.646 90.7217C722.35 89.7484 722.139 88.9232 722.012 88.2461C721.885 87.569 721.821 86.8708 721.821 86.1514C721.821 84.7549 722.118 83.6335 722.71 82.7871C723.302 81.8984 724.128 81.4541 725.186 81.4541C726.159 81.4541 726.921 81.8773 727.471 82.7236C728.063 83.57 728.359 84.6068 728.359 85.834C728.359 86.5111 728.296 87.1882 728.169 87.8652C728.042 88.5423 727.873 89.3887 727.661 90.4043C728.634 92.8164 729.608 94.9535 730.581 96.8154C731.554 98.6774 732.422 100.391 733.184 101.957C733.945 103.48 734.559 104.919 735.024 106.273C735.532 107.628 735.786 108.982 735.786 110.336C735.786 112.113 735.426 113.806 734.707 115.414C733.988 117.022 732.803 118.376 731.152 119.477C731.364 119.519 731.576 119.54 731.787 119.54C731.999 119.54 732.21 119.54 732.422 119.54C734.834 119.54 737.056 118.99 739.087 117.89C741.118 116.789 742.938 115.372 744.546 113.637C746.196 111.859 747.656 109.913 748.926 107.797C750.195 105.639 751.296 103.502 752.227 101.386C752.65 100.412 753.242 99.9258 754.004 99.9258C754.723 99.9258 755.273 100.18 755.654 100.688C756.077 101.195 756.289 101.745 756.289 102.338C756.289 102.676 756.226 102.994 756.099 103.29C755.633 104.433 755.02 105.744 754.258 107.226C753.538 108.664 752.65 110.167 751.592 111.732C750.576 113.256 749.391 114.758 748.037 116.239C746.683 117.72 745.16 119.053 743.467 120.238C741.816 121.381 739.997 122.291 738.008 122.968C736.019 123.687 733.84 124.047 731.47 124.047C728.634 124.047 725.99 123.539 723.535 122.523C721.123 121.55 719.155 119.921 717.632 117.636C717.378 117.255 717.251 116.853 717.251 116.43C717.251 115.795 717.484 115.245 717.949 114.779C718.457 114.271 719.028 114.018 719.663 114.018C720.34 114.018 720.911 114.25 721.377 114.716C721.419 114.8 721.567 114.949 721.821 115.16C722.075 115.329 722.371 115.541 722.71 115.795C723.091 116.007 723.514 116.197 723.979 116.366C724.487 116.535 724.995 116.62 725.503 116.62C726.519 116.62 727.365 116.409 728.042 115.985C728.761 115.562 729.333 115.054 729.756 114.462C730.179 113.827 730.475 113.171 730.645 112.494C730.856 111.775 730.962 111.161 730.962 110.653C730.962 109.595 730.793 108.537 730.454 107.479C730.116 106.422 729.671 105.364 729.121 104.306C728.613 103.248 728.042 102.169 727.407 101.068C726.815 99.9258 726.265 98.7409 725.757 97.5137Z" fill="#0A4284"/>
<path d="M829.665 115.609C823.799 114.083 817.99 115.044 813.427 118.107C810.935 113.209 806.331 109.539 800.464 108.013C795.353 106.69 789.926 107.449 785.373 110.122C780.821 112.795 777.514 117.165 776.179 122.272C770.684 143.396 797.191 168.311 798.32 169.363C798.759 169.77 799.293 170.063 799.873 170.214C800.453 170.365 801.061 170.369 801.643 170.227C803.142 169.859 838.429 161.018 843.924 139.895C845.247 134.783 844.489 129.356 841.816 124.804C839.143 120.251 834.773 116.944 829.665 115.609ZM817.249 156.762C812.284 159.155 807.129 161.13 801.836 162.667C797.963 158.746 794.423 154.509 791.254 150C786.338 142.926 780.952 132.686 783.187 124.095C784.033 120.843 786.137 118.059 789.035 116.358C791.933 114.656 795.389 114.175 798.641 115.021C803.839 116.373 807.476 120.25 808.133 125.141C808.229 125.854 808.535 126.522 809.011 127.061C809.488 127.599 810.115 127.984 810.811 128.165C811.507 128.346 812.241 128.316 812.92 128.078C813.599 127.84 814.191 127.405 814.622 126.829C817.579 122.878 822.644 121.265 827.842 122.617C831.095 123.463 833.878 125.567 835.58 128.465C837.282 131.363 837.762 134.819 836.916 138.072C834.681 146.662 824.988 152.98 817.249 156.762Z" fill="#0A4284"/>
<path d="M141.5 217V186H130.75V182.9H155.95V186H145.2V217H141.5ZM165.467 192.8C167.567 192.8 169.467 193.317 171.167 194.35C172.867 195.383 174.2 196.8 175.167 198.6C176.133 200.367 176.617 202.35 176.617 204.55C176.617 205.183 176.6 205.667 176.567 206H157.317C157.45 208.4 158.233 210.45 159.667 212.15C161.1 213.85 163.05 214.7 165.517 214.7C167.517 214.7 169.167 214.333 170.467 213.6C171.8 212.833 172.867 211.783 173.667 210.45L176.367 212.25C175.267 213.983 173.817 215.35 172.017 216.35C170.217 217.317 168.083 217.8 165.617 217.8C163.35 217.8 161.333 217.267 159.567 216.2C157.8 215.133 156.417 213.65 155.417 211.75C154.417 209.85 153.917 207.7 153.917 205.3C153.917 202.9 154.4 200.75 155.367 198.85C156.367 196.95 157.733 195.467 159.467 194.4C161.233 193.333 163.233 192.8 165.467 192.8ZM173.217 203.2C172.883 200.767 172.067 198.95 170.767 197.75C169.467 196.517 167.7 195.9 165.467 195.9C163.3 195.9 161.517 196.6 160.117 198C158.75 199.367 157.883 201.1 157.517 203.2H173.217ZM191.786 217.8C189.52 217.8 187.503 217.267 185.736 216.2C183.97 215.133 182.586 213.65 181.586 211.75C180.586 209.85 180.086 207.7 180.086 205.3C180.086 202.9 180.57 200.75 181.536 198.85C182.536 196.95 183.92 195.467 185.686 194.4C187.453 193.333 189.453 192.8 191.686 192.8C193.586 192.8 195.236 193.217 196.636 194.05C198.07 194.85 199.37 196 200.536 197.5L198.036 199.45C196.403 197.083 194.286 195.9 191.686 195.9C190.12 195.9 188.703 196.3 187.436 197.1C186.203 197.9 185.236 199.017 184.536 200.45C183.836 201.883 183.486 203.5 183.486 205.3C183.486 207.1 183.836 208.717 184.536 210.15C185.236 211.583 186.203 212.7 187.436 213.5C188.703 214.3 190.12 214.7 191.686 214.7C193.286 214.7 194.603 214.433 195.636 213.9C196.67 213.333 197.603 212.517 198.436 211.45L201.086 213.3C199.986 214.667 198.62 215.767 196.986 216.6C195.386 217.4 193.653 217.8 191.786 217.8ZM216.614 192.8C218.248 192.8 219.748 193.133 221.114 193.8C222.514 194.467 223.614 195.45 224.414 196.75C225.248 198.05 225.664 199.583 225.664 201.35V217H222.264V202.85C222.264 198.217 220.198 195.9 216.064 195.9C213.664 195.9 211.864 196.75 210.664 198.45C209.464 200.15 208.864 202.433 208.864 205.3V217H205.464V180.7H208.864V197.5C209.664 196 210.714 194.85 212.014 194.05C213.348 193.217 214.881 192.8 216.614 192.8ZM250.906 217.8C248.573 217.8 246.523 217.183 244.756 215.95C243.023 214.683 241.69 212.917 240.756 210.65L243.906 209.15C244.406 210.75 245.273 212.017 246.506 212.95C247.773 213.85 249.173 214.3 250.706 214.3C252.84 214.3 254.456 213.65 255.556 212.35C256.656 211.017 257.206 209.15 257.206 206.75V182.9H260.956V206.75C260.956 210.217 260.056 212.933 258.256 214.9C256.456 216.833 254.006 217.8 250.906 217.8ZM278.311 217.8C276.078 217.8 274.078 217.267 272.311 216.2C270.544 215.133 269.161 213.65 268.161 211.75C267.161 209.817 266.661 207.65 266.661 205.25C266.661 202.85 267.144 200.717 268.111 198.85C269.111 196.95 270.478 195.467 272.211 194.4C273.978 193.333 275.978 192.8 278.211 192.8C280.444 192.8 282.444 193.333 284.211 194.4C285.978 195.467 287.361 196.95 288.361 198.85C289.361 200.75 289.861 202.9 289.861 205.3C289.861 207.7 289.361 209.85 288.361 211.75C287.394 213.65 286.028 215.133 284.261 216.2C282.528 217.267 280.544 217.8 278.311 217.8ZM278.211 214.7C279.811 214.7 281.228 214.3 282.461 213.5C283.728 212.7 284.711 211.583 285.411 210.15C286.111 208.717 286.461 207.1 286.461 205.3C286.461 203.5 286.111 201.883 285.411 200.45C284.711 199.017 283.728 197.9 282.461 197.1C281.228 196.3 279.811 195.9 278.211 195.9C276.644 195.9 275.244 196.3 274.011 197.1C272.778 197.9 271.811 199.017 271.111 200.45C270.411 201.85 270.061 203.45 270.061 205.25C270.061 207.083 270.411 208.717 271.111 210.15C271.811 211.583 272.778 212.7 274.011 213.5C275.244 214.3 276.644 214.7 278.211 214.7ZM315.223 193.6V217H311.823V213.1C311.023 214.6 309.957 215.767 308.623 216.6C307.323 217.4 305.807 217.8 304.073 217.8C302.44 217.8 300.923 217.467 299.523 216.8C298.157 216.133 297.057 215.15 296.223 213.85C295.423 212.55 295.023 211.017 295.023 209.25V193.6H298.423V207.75C298.423 212.383 300.49 214.7 304.623 214.7C307.023 214.7 308.823 213.85 310.023 212.15C311.223 210.45 311.823 208.167 311.823 205.3V193.6H315.223ZM333.029 192.8C333.829 192.8 334.596 192.917 335.329 193.15V196.25C334.629 195.917 333.862 195.75 333.029 195.75C331.596 195.75 330.262 196.15 329.029 196.95C327.796 197.75 326.796 198.917 326.029 200.45C325.296 201.95 324.929 203.733 324.929 205.8V217H321.529V193.6H324.929V198.3C325.829 196.567 326.962 195.217 328.329 194.25C329.729 193.283 331.296 192.8 333.029 192.8ZM349.622 192.8C351.256 192.8 352.756 193.133 354.122 193.8C355.522 194.467 356.622 195.45 357.422 196.75C358.256 198.05 358.672 199.583 358.672 201.35V217H355.272V202.85C355.272 198.217 353.206 195.9 349.072 195.9C346.672 195.9 344.872 196.75 343.672 198.45C342.472 200.15 341.872 202.433 341.872 205.3V217H338.472V193.6H341.872V197.5C342.672 196 343.722 194.85 345.022 194.05C346.356 193.217 347.889 192.8 349.622 192.8ZM387.078 193.6V217H383.678V213.55C382.711 214.883 381.528 215.933 380.128 216.7C378.728 217.433 377.194 217.8 375.528 217.8C373.294 217.8 371.294 217.267 369.528 216.2C367.761 215.133 366.378 213.65 365.378 211.75C364.378 209.85 363.878 207.683 363.878 205.25C363.878 202.85 364.361 200.717 365.328 198.85C366.328 196.95 367.694 195.467 369.428 194.4C371.194 193.333 373.194 192.8 375.428 192.8C377.128 192.8 378.678 193.183 380.078 193.95C381.511 194.683 382.711 195.733 383.678 197.1V193.6H387.078ZM375.428 214.7C377.028 214.7 378.444 214.3 379.678 213.5C380.944 212.7 381.928 211.583 382.628 210.15C383.328 208.717 383.678 207.1 383.678 205.3C383.678 203.5 383.328 201.883 382.628 200.45C381.928 199.017 380.944 197.9 379.678 197.1C378.444 196.3 377.028 195.9 375.428 195.9C373.861 195.9 372.461 196.3 371.228 197.1C369.994 197.9 369.028 199.017 368.328 200.45C367.628 201.85 367.278 203.45 367.278 205.25C367.278 207.083 367.628 208.717 368.328 210.15C369.028 211.583 369.994 212.7 371.228 213.5C372.461 214.3 373.861 214.7 375.428 214.7ZM393.605 217V180.7H397.005V217H393.605ZM422.494 211.35V202.85H413.994V200.1H422.494V191.1H425.494V200.1H433.994V202.85H425.494V211.35H422.494ZM461.587 217V182.9H480.687V186.05H465.337V197.95H477.337V201H465.337V213.9H480.837V217H461.587ZM503.795 217H499.895L493.795 207.25L487.695 217H483.895L491.395 205L484.345 193.6H488.195L493.845 202.8L499.795 193.6H503.545L496.195 204.95L503.795 217ZM520.141 192.8C522.374 192.8 524.374 193.333 526.141 194.4C527.907 195.467 529.291 196.95 530.291 198.85C531.291 200.75 531.791 202.917 531.791 205.35C531.791 207.75 531.291 209.9 530.291 211.8C529.324 213.667 527.957 215.133 526.191 216.2C524.457 217.267 522.474 217.8 520.241 217.8C518.541 217.8 516.974 217.433 515.541 216.7C514.141 215.933 512.957 214.867 511.991 213.5V227H508.591V193.6H511.991V197.05C512.957 195.717 514.141 194.683 515.541 193.95C516.941 193.183 518.474 192.8 520.141 192.8ZM520.241 214.7C521.807 214.7 523.207 214.3 524.441 213.5C525.674 212.7 526.641 211.6 527.341 210.2C528.041 208.767 528.391 207.15 528.391 205.35C528.391 203.517 528.041 201.883 527.341 200.45C526.641 199.017 525.674 197.9 524.441 197.1C523.207 196.3 521.807 195.9 520.241 195.9C518.641 195.9 517.207 196.3 515.941 197.1C514.707 197.9 513.741 199.017 513.041 200.45C512.341 201.883 511.991 203.5 511.991 205.3C511.991 207.1 512.341 208.717 513.041 210.15C513.741 211.583 514.707 212.7 515.941 213.5C517.207 214.3 518.641 214.7 520.241 214.7ZM546.668 192.8C548.768 192.8 550.668 193.317 552.368 194.35C554.068 195.383 555.401 196.8 556.368 198.6C557.335 200.367 557.818 202.35 557.818 204.55C557.818 205.183 557.801 205.667 557.768 206H538.518C538.651 208.4 539.435 210.45 540.868 212.15C542.301 213.85 544.251 214.7 546.718 214.7C548.718 214.7 550.368 214.333 551.668 213.6C553.001 212.833 554.068 211.783 554.868 210.45L557.568 212.25C556.468 213.983 555.018 215.35 553.218 216.35C551.418 217.317 549.285 217.8 546.818 217.8C544.551 217.8 542.535 217.267 540.768 216.2C539.001 215.133 537.618 213.65 536.618 211.75C535.618 209.85 535.118 207.7 535.118 205.3C535.118 202.9 535.601 200.75 536.568 198.85C537.568 196.95 538.935 195.467 540.668 194.4C542.435 193.333 544.435 192.8 546.668 192.8ZM554.418 203.2C554.085 200.767 553.268 198.95 551.968 197.75C550.668 196.517 548.901 195.9 546.668 195.9C544.501 195.9 542.718 196.6 541.318 198C539.951 199.367 539.085 201.1 538.718 203.2H554.418ZM574.338 192.8C575.138 192.8 575.904 192.917 576.638 193.15V196.25C575.938 195.917 575.171 195.75 574.338 195.75C572.904 195.75 571.571 196.15 570.338 196.95C569.104 197.75 568.104 198.917 567.338 200.45C566.604 201.95 566.238 203.733 566.238 205.8V217H562.838V193.6H566.238V198.3C567.138 196.567 568.271 195.217 569.638 194.25C571.038 193.283 572.604 192.8 574.338 192.8ZM581.631 217V193.6H585.031V217H581.631ZM583.331 189.05C582.564 189.05 581.914 188.783 581.381 188.25C580.881 187.717 580.631 187.067 580.631 186.3C580.631 185.567 580.881 184.95 581.381 184.45C581.914 183.917 582.564 183.65 583.331 183.65C584.064 183.65 584.698 183.917 585.231 184.45C585.764 184.95 586.031 185.583 586.031 186.35C586.031 187.083 585.764 187.717 585.231 188.25C584.698 188.783 584.064 189.05 583.331 189.05ZM618.06 192.8C620.226 192.8 622.026 193.567 623.46 195.1C624.893 196.6 625.61 198.683 625.61 201.35V217H622.21V202.85C622.21 200.383 621.743 198.617 620.81 197.55C619.876 196.45 618.66 195.9 617.16 195.9C615.326 195.9 613.893 196.617 612.86 198.05C611.86 199.45 611.276 201.367 611.11 203.8V217H607.71V202.85C607.71 200.383 607.243 198.617 606.31 197.55C605.376 196.45 604.16 195.9 602.66 195.9C600.626 195.9 599.093 196.75 598.06 198.45C597.06 200.15 596.56 202.433 596.56 205.3V217H593.16V193.6H596.56V197.25C597.326 195.817 598.293 194.717 599.46 193.95C600.66 193.183 602.026 192.8 603.56 192.8C605.26 192.8 606.743 193.267 608.01 194.2C609.276 195.1 610.16 196.4 610.66 198.1C611.393 196.433 612.393 195.133 613.66 194.2C614.926 193.267 616.393 192.8 618.06 192.8ZM641.736 192.8C643.836 192.8 645.736 193.317 647.436 194.35C649.136 195.383 650.47 196.8 651.436 198.6C652.403 200.367 652.886 202.35 652.886 204.55C652.886 205.183 652.87 205.667 652.836 206H633.586C633.72 208.4 634.503 210.45 635.936 212.15C637.37 213.85 639.32 214.7 641.786 214.7C643.786 214.7 645.436 214.333 646.736 213.6C648.07 212.833 649.136 211.783 649.936 210.45L652.636 212.25C651.536 213.983 650.086 215.35 648.286 216.35C646.486 217.317 644.353 217.8 641.886 217.8C639.62 217.8 637.603 217.267 635.836 216.2C634.07 215.133 632.686 213.65 631.686 211.75C630.686 209.85 630.186 207.7 630.186 205.3C630.186 202.9 630.67 200.75 631.636 198.85C632.636 196.95 634.003 195.467 635.736 194.4C637.503 193.333 639.503 192.8 641.736 192.8ZM649.486 203.2C649.153 200.767 648.336 198.95 647.036 197.75C645.736 196.517 643.97 195.9 641.736 195.9C639.57 195.9 637.786 196.6 636.386 198C635.02 199.367 634.153 201.1 633.786 203.2H649.486ZM669.056 192.8C670.689 192.8 672.189 193.133 673.556 193.8C674.956 194.467 676.056 195.45 676.856 196.75C677.689 198.05 678.106 199.583 678.106 201.35V217H674.706V202.85C674.706 198.217 672.639 195.9 668.506 195.9C666.106 195.9 664.306 196.75 663.106 198.45C661.906 200.15 661.306 202.433 661.306 205.3V217H657.906V193.6H661.306V197.5C662.106 196 663.156 194.85 664.456 194.05C665.789 193.217 667.323 192.8 669.056 192.8ZM686.011 217V196.7H682.011V193.6H686.011V185.85H689.411V193.6H694.811V196.7H689.411V217H686.011ZM706.781 217.8C704.514 217.8 702.514 217.317 700.781 216.35C699.081 215.383 697.781 214.017 696.881 212.25L699.931 210.75C701.164 213.383 703.581 214.7 707.181 214.7C708.914 214.7 710.348 214.383 711.481 213.75C712.614 213.117 713.181 212.133 713.181 210.8C713.181 209.433 712.714 208.417 711.781 207.75C710.881 207.083 709.281 206.65 706.981 206.45C703.781 206.183 701.481 205.467 700.081 204.3C698.714 203.133 698.031 201.583 698.031 199.65C698.031 197.483 698.814 195.8 700.381 194.6C701.948 193.4 704.098 192.8 706.831 192.8C711.464 192.8 714.614 194.633 716.281 198.3L713.231 199.8C712.664 198.467 711.831 197.483 710.731 196.85C709.664 196.217 708.281 195.9 706.581 195.9C704.848 195.9 703.514 196.217 702.581 196.85C701.681 197.483 701.231 198.383 701.231 199.55C701.231 200.65 701.714 201.55 702.681 202.25C703.681 202.917 705.381 203.35 707.781 203.55C710.748 203.817 712.948 204.55 714.381 205.75C715.848 206.917 716.581 208.467 716.581 210.4C716.581 211.967 716.131 213.317 715.231 214.45C714.331 215.55 713.131 216.383 711.631 216.95C710.131 217.517 708.514 217.8 706.781 217.8Z" fill="#0A4284"/>
<path d="M140.5 217V186H129.75V182.9H154.95V186H144.2V217H140.5ZM164.467 192.8C166.567 192.8 168.467 193.317 170.167 194.35C171.867 195.383 173.2 196.8 174.167 198.6C175.133 200.367 175.617 202.35 175.617 204.55C175.617 205.183 175.6 205.667 175.567 206H156.317C156.45 208.4 157.233 210.45 158.667 212.15C160.1 213.85 162.05 214.7 164.517 214.7C166.517 214.7 168.167 214.333 169.467 213.6C170.8 212.833 171.867 211.783 172.667 210.45L175.367 212.25C174.267 213.983 172.817 215.35 171.017 216.35C169.217 217.317 167.083 217.8 164.617 217.8C162.35 217.8 160.333 217.267 158.567 216.2C156.8 215.133 155.417 213.65 154.417 211.75C153.417 209.85 152.917 207.7 152.917 205.3C152.917 202.9 153.4 200.75 154.367 198.85C155.367 196.95 156.733 195.467 158.467 194.4C160.233 193.333 162.233 192.8 164.467 192.8ZM172.217 203.2C171.883 200.767 171.067 198.95 169.767 197.75C168.467 196.517 166.7 195.9 164.467 195.9C162.3 195.9 160.517 196.6 159.117 198C157.75 199.367 156.883 201.1 156.517 203.2H172.217ZM190.786 217.8C188.52 217.8 186.503 217.267 184.736 216.2C182.97 215.133 181.586 213.65 180.586 211.75C179.586 209.85 179.086 207.7 179.086 205.3C179.086 202.9 179.57 200.75 180.536 198.85C181.536 196.95 182.92 195.467 184.686 194.4C186.453 193.333 188.453 192.8 190.686 192.8C192.586 192.8 194.236 193.217 195.636 194.05C197.07 194.85 198.37 196 199.536 197.5L197.036 199.45C195.403 197.083 193.286 195.9 190.686 195.9C189.12 195.9 187.703 196.3 186.436 197.1C185.203 197.9 184.236 199.017 183.536 200.45C182.836 201.883 182.486 203.5 182.486 205.3C182.486 207.1 182.836 208.717 183.536 210.15C184.236 211.583 185.203 212.7 186.436 213.5C187.703 214.3 189.12 214.7 190.686 214.7C192.286 214.7 193.603 214.433 194.636 213.9C195.67 213.333 196.603 212.517 197.436 211.45L200.086 213.3C198.986 214.667 197.62 215.767 195.986 216.6C194.386 217.4 192.653 217.8 190.786 217.8ZM215.614 192.8C217.248 192.8 218.748 193.133 220.114 193.8C221.514 194.467 222.614 195.45 223.414 196.75C224.248 198.05 224.664 199.583 224.664 201.35V217H221.264V202.85C221.264 198.217 219.198 195.9 215.064 195.9C212.664 195.9 210.864 196.75 209.664 198.45C208.464 200.15 207.864 202.433 207.864 205.3V217H204.464V180.7H207.864V197.5C208.664 196 209.714 194.85 211.014 194.05C212.348 193.217 213.881 192.8 215.614 192.8ZM249.906 217.8C247.573 217.8 245.523 217.183 243.756 215.95C242.023 214.683 240.69 212.917 239.756 210.65L242.906 209.15C243.406 210.75 244.273 212.017 245.506 212.95C246.773 213.85 248.173 214.3 249.706 214.3C251.84 214.3 253.456 213.65 254.556 212.35C255.656 211.017 256.206 209.15 256.206 206.75V182.9H259.956V206.75C259.956 210.217 259.056 212.933 257.256 214.9C255.456 216.833 253.006 217.8 249.906 217.8ZM277.311 217.8C275.078 217.8 273.078 217.267 271.311 216.2C269.544 215.133 268.161 213.65 267.161 211.75C266.161 209.817 265.661 207.65 265.661 205.25C265.661 202.85 266.144 200.717 267.111 198.85C268.111 196.95 269.478 195.467 271.211 194.4C272.978 193.333 274.978 192.8 277.211 192.8C279.444 192.8 281.444 193.333 283.211 194.4C284.978 195.467 286.361 196.95 287.361 198.85C288.361 200.75 288.861 202.9 288.861 205.3C288.861 207.7 288.361 209.85 287.361 211.75C286.394 213.65 285.028 215.133 283.261 216.2C281.528 217.267 279.544 217.8 277.311 217.8ZM277.211 214.7C278.811 214.7 280.228 214.3 281.461 213.5C282.728 212.7 283.711 211.583 284.411 210.15C285.111 208.717 285.461 207.1 285.461 205.3C285.461 203.5 285.111 201.883 284.411 200.45C283.711 199.017 282.728 197.9 281.461 197.1C280.228 196.3 278.811 195.9 277.211 195.9C275.644 195.9 274.244 196.3 273.011 197.1C271.778 197.9 270.811 199.017 270.111 200.45C269.411 201.85 269.061 203.45 269.061 205.25C269.061 207.083 269.411 208.717 270.111 210.15C270.811 211.583 271.778 212.7 273.011 213.5C274.244 214.3 275.644 214.7 277.211 214.7ZM314.223 193.6V217H310.823V213.1C310.023 214.6 308.957 215.767 307.623 216.6C306.323 217.4 304.807 217.8 303.073 217.8C301.44 217.8 299.923 217.467 298.523 216.8C297.157 216.133 296.057 215.15 295.223 213.85C294.423 212.55 294.023 211.017 294.023 209.25V193.6H297.423V207.75C297.423 212.383 299.49 214.7 303.623 214.7C306.023 214.7 307.823 213.85 309.023 212.15C310.223 210.45 310.823 208.167 310.823 205.3V193.6H314.223ZM332.029 192.8C332.829 192.8 333.596 192.917 334.329 193.15V196.25C333.629 195.917 332.862 195.75 332.029 195.75C330.596 195.75 329.262 196.15 328.029 196.95C326.796 197.75 325.796 198.917 325.029 200.45C324.296 201.95 323.929 203.733 323.929 205.8V217H320.529V193.6H323.929V198.3C324.829 196.567 325.962 195.217 327.329 194.25C328.729 193.283 330.296 192.8 332.029 192.8ZM348.622 192.8C350.256 192.8 351.756 193.133 353.122 193.8C354.522 194.467 355.622 195.45 356.422 196.75C357.256 198.05 357.672 199.583 357.672 201.35V217H354.272V202.85C354.272 198.217 352.206 195.9 348.072 195.9C345.672 195.9 343.872 196.75 342.672 198.45C341.472 200.15 340.872 202.433 340.872 205.3V217H337.472V193.6H340.872V197.5C341.672 196 342.722 194.85 344.022 194.05C345.356 193.217 346.889 192.8 348.622 192.8ZM386.078 193.6V217H382.678V213.55C381.711 214.883 380.528 215.933 379.128 216.7C377.728 217.433 376.194 217.8 374.528 217.8C372.294 217.8 370.294 217.267 368.528 216.2C366.761 215.133 365.378 213.65 364.378 211.75C363.378 209.85 362.878 207.683 362.878 205.25C362.878 202.85 363.361 200.717 364.328 198.85C365.328 196.95 366.694 195.467 368.428 194.4C370.194 193.333 372.194 192.8 374.428 192.8C376.128 192.8 377.678 193.183 379.078 193.95C380.511 194.683 381.711 195.733 382.678 197.1V193.6H386.078ZM374.428 214.7C376.028 214.7 377.444 214.3 378.678 213.5C379.944 212.7 380.928 211.583 381.628 210.15C382.328 208.717 382.678 207.1 382.678 205.3C382.678 203.5 382.328 201.883 381.628 200.45C380.928 199.017 379.944 197.9 378.678 197.1C377.444 196.3 376.028 195.9 374.428 195.9C372.861 195.9 371.461 196.3 370.228 197.1C368.994 197.9 368.028 199.017 367.328 200.45C366.628 201.85 366.278 203.45 366.278 205.25C366.278 207.083 366.628 208.717 367.328 210.15C368.028 211.583 368.994 212.7 370.228 213.5C371.461 214.3 372.861 214.7 374.428 214.7ZM392.605 217V180.7H396.005V217H392.605ZM421.494 211.35V202.85H412.994V200.1H421.494V191.1H424.494V200.1H432.994V202.85H424.494V211.35H421.494ZM460.587 217V182.9H479.687V186.05H464.337V197.95H476.337V201H464.337V213.9H479.837V217H460.587ZM502.795 217H498.895L492.795 207.25L486.695 217H482.895L490.395 205L483.345 193.6H487.195L492.845 202.8L498.795 193.6H502.545L495.195 204.95L502.795 217ZM519.141 192.8C521.374 192.8 523.374 193.333 525.141 194.4C526.907 195.467 528.291 196.95 529.291 198.85C530.291 200.75 530.791 202.917 530.791 205.35C530.791 207.75 530.291 209.9 529.291 211.8C528.324 213.667 526.957 215.133 525.191 216.2C523.457 217.267 521.474 217.8 519.241 217.8C517.541 217.8 515.974 217.433 514.541 216.7C513.141 215.933 511.957 214.867 510.991 213.5V227H507.591V193.6H510.991V197.05C511.957 195.717 513.141 194.683 514.541 193.95C515.941 193.183 517.474 192.8 519.141 192.8ZM519.241 214.7C520.807 214.7 522.207 214.3 523.441 213.5C524.674 212.7 525.641 211.6 526.341 210.2C527.041 208.767 527.391 207.15 527.391 205.35C527.391 203.517 527.041 201.883 526.341 200.45C525.641 199.017 524.674 197.9 523.441 197.1C522.207 196.3 520.807 195.9 519.241 195.9C517.641 195.9 516.207 196.3 514.941 197.1C513.707 197.9 512.741 199.017 512.041 200.45C511.341 201.883 510.991 203.5 510.991 205.3C510.991 207.1 511.341 208.717 512.041 210.15C512.741 211.583 513.707 212.7 514.941 213.5C516.207 214.3 517.641 214.7 519.241 214.7ZM545.668 192.8C547.768 192.8 549.668 193.317 551.368 194.35C553.068 195.383 554.401 196.8 555.368 198.6C556.335 200.367 556.818 202.35 556.818 204.55C556.818 205.183 556.801 205.667 556.768 206H537.518C537.651 208.4 538.435 210.45 539.868 212.15C541.301 213.85 543.251 214.7 545.718 214.7C547.718 214.7 549.368 214.333 550.668 213.6C552.001 212.833 553.068 211.783 553.868 210.45L556.568 212.25C555.468 213.983 554.018 215.35 552.218 216.35C550.418 217.317 548.285 217.8 545.818 217.8C543.551 217.8 541.535 217.267 539.768 216.2C538.001 215.133 536.618 213.65 535.618 211.75C534.618 209.85 534.118 207.7 534.118 205.3C534.118 202.9 534.601 200.75 535.568 198.85C536.568 196.95 537.935 195.467 539.668 194.4C541.435 193.333 543.435 192.8 545.668 192.8ZM553.418 203.2C553.085 200.767 552.268 198.95 550.968 197.75C549.668 196.517 547.901 195.9 545.668 195.9C543.501 195.9 541.718 196.6 540.318 198C538.951 199.367 538.085 201.1 537.718 203.2H553.418ZM573.338 192.8C574.138 192.8 574.904 192.917 575.638 193.15V196.25C574.938 195.917 574.171 195.75 573.338 195.75C571.904 195.75 570.571 196.15 569.338 196.95C568.104 197.75 567.104 198.917 566.338 200.45C565.604 201.95 565.238 203.733 565.238 205.8V217H561.838V193.6H565.238V198.3C566.138 196.567 567.271 195.217 568.638 194.25C570.038 193.283 571.604 192.8 573.338 192.8ZM580.631 217V193.6H584.031V217H580.631ZM582.331 189.05C581.564 189.05 580.914 188.783 580.381 188.25C579.881 187.717 579.631 187.067 579.631 186.3C579.631 185.567 579.881 184.95 580.381 184.45C580.914 183.917 581.564 183.65 582.331 183.65C583.064 183.65 583.698 183.917 584.231 184.45C584.764 184.95 585.031 185.583 585.031 186.35C585.031 187.083 584.764 187.717 584.231 188.25C583.698 188.783 583.064 189.05 582.331 189.05ZM617.06 192.8C619.226 192.8 621.026 193.567 622.46 195.1C623.893 196.6 624.61 198.683 624.61 201.35V217H621.21V202.85C621.21 200.383 620.743 198.617 619.81 197.55C618.876 196.45 617.66 195.9 616.16 195.9C614.326 195.9 612.893 196.617 611.86 198.05C610.86 199.45 610.276 201.367 610.11 203.8V217H606.71V202.85C606.71 200.383 606.243 198.617 605.31 197.55C604.376 196.45 603.16 195.9 601.66 195.9C599.626 195.9 598.093 196.75 597.06 198.45C596.06 200.15 595.56 202.433 595.56 205.3V217H592.16V193.6H595.56V197.25C596.326 195.817 597.293 194.717 598.46 193.95C599.66 193.183 601.026 192.8 602.56 192.8C604.26 192.8 605.743 193.267 607.01 194.2C608.276 195.1 609.16 196.4 609.66 198.1C610.393 196.433 611.393 195.133 612.66 194.2C613.926 193.267 615.393 192.8 617.06 192.8ZM640.736 192.8C642.836 192.8 644.736 193.317 646.436 194.35C648.136 195.383 649.47 196.8 650.436 198.6C651.403 200.367 651.886 202.35 651.886 204.55C651.886 205.183 651.87 205.667 651.836 206H632.586C632.72 208.4 633.503 210.45 634.936 212.15C636.37 213.85 638.32 214.7 640.786 214.7C642.786 214.7 644.436 214.333 645.736 213.6C647.07 212.833 648.136 211.783 648.936 210.45L651.636 212.25C650.536 213.983 649.086 215.35 647.286 216.35C645.486 217.317 643.353 217.8 640.886 217.8C638.62 217.8 636.603 217.267 634.836 216.2C633.07 215.133 631.686 213.65 630.686 211.75C629.686 209.85 629.186 207.7 629.186 205.3C629.186 202.9 629.67 200.75 630.636 198.85C631.636 196.95 633.003 195.467 634.736 194.4C636.503 193.333 638.503 192.8 640.736 192.8ZM648.486 203.2C648.153 200.767 647.336 198.95 646.036 197.75C644.736 196.517 642.97 195.9 640.736 195.9C638.57 195.9 636.786 196.6 635.386 198C634.02 199.367 633.153 201.1 632.786 203.2H648.486ZM668.056 192.8C669.689 192.8 671.189 193.133 672.556 193.8C673.956 194.467 675.056 195.45 675.856 196.75C676.689 198.05 677.106 199.583 677.106 201.35V217H673.706V202.85C673.706 198.217 671.639 195.9 667.506 195.9C665.106 195.9 663.306 196.75 662.106 198.45C660.906 200.15 660.306 202.433 660.306 205.3V217H656.906V193.6H660.306V197.5C661.106 196 662.156 194.85 663.456 194.05C664.789 193.217 666.323 192.8 668.056 192.8ZM685.011 217V196.7H681.011V193.6H685.011V185.85H688.411V193.6H693.811V196.7H688.411V217H685.011ZM705.781 217.8C703.514 217.8 701.514 217.317 699.781 216.35C698.081 215.383 696.781 214.017 695.881 212.25L698.931 210.75C700.164 213.383 702.581 214.7 706.181 214.7C707.914 214.7 709.348 214.383 710.481 213.75C711.614 213.117 712.181 212.133 712.181 210.8C712.181 209.433 711.714 208.417 710.781 207.75C709.881 207.083 708.281 206.65 705.981 206.45C702.781 206.183 700.481 205.467 699.081 204.3C697.714 203.133 697.031 201.583 697.031 199.65C697.031 197.483 697.814 195.8 699.381 194.6C700.948 193.4 703.098 192.8 705.831 192.8C710.464 192.8 713.614 194.633 715.281 198.3L712.231 199.8C711.664 198.467 710.831 197.483 709.731 196.85C708.664 196.217 707.281 195.9 705.581 195.9C703.848 195.9 702.514 196.217 701.581 196.85C700.681 197.483 700.231 198.383 700.231 199.55C700.231 200.65 700.714 201.55 701.681 202.25C702.681 202.917 704.381 203.35 706.781 203.55C709.748 203.817 711.948 204.55 713.381 205.75C714.848 206.917 715.581 208.467 715.581 210.4C715.581 211.967 715.131 213.317 714.231 214.45C713.331 215.55 712.131 216.383 710.631 216.95C709.131 217.517 707.514 217.8 705.781 217.8Z" fill="#0A4284"/>
</svg>
